<svg xmlns="http://www.w3.org/2000/svg" xmlns:xlink="http://www.w3.org/1999/xlink" id="Layer_1" data-name="Layer 1" viewBox="0 0 84.59 91.31"><defs><style>.cls-1{fill:none;}.cls-2{clip-path:url(#clip-path);}.cls-3{fill:#f7eded;}.cls-4{fill:#fe5948;}.cls-5{fill:#fff;}.cls-6{fill:#00224f;}</style><clipPath id="clip-path"><rect class="cls-1" width="84.59" height="91.31"></rect></clipPath></defs><title>1</title><g class="cls-2"><path class="cls-3" d="M45.17,77.31a14,14,0,1,1-14-14,14,14,0,0,1,14,14"></path><path class="cls-3" d="M84.59,55.81a12,12,0,1,1-12-12,12,12,0,0,1,12,12"></path><path class="cls-3" d="M40,20A20,20,0,1,1,20,0,20,20,0,0,1,40,20"></path><path class="cls-4" d="M62.42,58.81v8a1,1,0,0,1-1,1h-51v4h56v-13Z"></path><path class="cls-5" d="M62.42,66.81v-8h-52v9h51a1,1,0,0,0,1-1"></path><polygon class="cls-4" points="70.42 58.81 6.42 58.81 11.42 49.81 65.42 49.81 70.42 58.81"></polygon><path class="cls-5" d="M64.57,55.81H8.09l3.33-6H62.09L65,55.07a.5.5,0,0,1-.44.74"></path><path class="cls-4" d="M68.74,21.14H66.91v3.67a.92.92,0,0,1-.92.92H61.41a1.83,1.83,0,0,0-1.84,1.82h0v4.58a.93.93,0,0,1-.91.92H55v1.83a.92.92,0,0,0,.92.92h5.5a.93.93,0,0,0,.91-.92V28.48h6.42a.92.92,0,0,0,.92-.92v-5.5a.92.92,0,0,0-.92-.92"></path><path class="cls-6" d="M61.41,36.56h-5.5a1.67,1.67,0,0,1-1.67-1.67V29.23H48.57a1.66,1.66,0,0,1-1.66-1.66h0v-5.5a1.66,1.66,0,0,1,1.65-1.67h5.68V14.73a1.67,1.67,0,0,1,1.67-1.67h5.5a1.67,1.67,0,0,1,1.66,1.67v5.66h5.67a1.67,1.67,0,0,1,1.67,1.67v5.5a1.67,1.67,0,0,1-1.67,1.67H63.07v5.66a1.67,1.67,0,0,1-1.66,1.67M48.57,21.89a.17.17,0,0,0-.16.17v5.5a.17.17,0,0,0,.16.17H55a.76.76,0,0,1,.75.75v6.41a.16.16,0,0,0,.15.17h5.52a.16.16,0,0,0,.16-.16h0V28.48a.76.76,0,0,1,.75-.75h6.42a.18.18,0,0,0,.17-.17v-5.5a.18.18,0,0,0-.17-.17H62.32a.76.76,0,0,1-.75-.75V14.73a.16.16,0,0,0-.15-.17H55.91a.16.16,0,0,0-.17.15v6.43a.76.76,0,0,1-.75.75Z"></path><path class="cls-5" d="M47.22,39.3a3.65,3.65,0,0,1,.14.35,3.65,3.65,0,0,0-.14-.35"></path><path class="cls-5" d="M46.8,38.51c.08.12.15.24.22.37-.07-.13-.14-.25-.22-.37"></path><path class="cls-5" d="M46.27,37.82a2.69,2.69,0,0,1,.3.37,2.69,2.69,0,0,0-.3-.37"></path><path class="cls-5" d="M45.65,37.22c.14.12.27.25.4.38-.13-.13-.26-.26-.4-.38"></path><path class="cls-5" d="M47.5,40.19a1.63,1.63,0,0,1,.07.3,1.63,1.63,0,0,0-.07-.3"></path><path class="cls-4" d="M46.05,37.6a2.39,2.39,0,0,1,.23.22l-.23-.22"></path><path class="cls-4" d="M45.6,37.19h0"></path><path class="cls-4" d="M46.57,38.19a3.71,3.71,0,0,1,.23.32,3.71,3.71,0,0,0-.23-.32"></path><path class="cls-4" d="M47.36,39.65a5.36,5.36,0,0,1,.14.54,5.36,5.36,0,0,0-.14-.54"></path><path class="cls-4" d="M47,38.88c.07.13.13.27.2.42-.07-.15-.13-.29-.2-.42"></path><path class="cls-4" d="M47.57,40.49a5.26,5.26,0,0,1,.08.89,5.26,5.26,0,0,0-.08-.89"></path><path class="cls-4" d="M47.57,40.49a1.63,1.63,0,0,0-.07-.3,5.36,5.36,0,0,0-.14-.54c0-.12-.1-.24-.14-.35a3.9,3.9,0,0,0-.2-.42c-.07-.13-.14-.25-.22-.37a3.71,3.71,0,0,0-.23-.32,2.69,2.69,0,0,0-.3-.37,2.28,2.28,0,0,0-.22-.22c-.13-.13-.26-.26-.4-.38h0a5.16,5.16,0,0,0-1.33-.76,5.08,5.08,0,0,1,.38,2v7.43a1,1,0,0,1-1,1h-28v3h32V41.38a5.26,5.26,0,0,0-.08-.89"></path><path class="cls-5" d="M29.66,16a8.72,8.72,0,0,1,.89-.16,8.72,8.72,0,0,0-.89.16"></path><path class="cls-5" d="M30.55,32.76a7,7,0,0,1-.9-.23,5.4,5.4,0,0,0,.9.23"></path><path class="cls-5" d="M31.65,32.87a6.74,6.74,0,0,1-1-.08,6.74,6.74,0,0,0,1,.08"></path><path class="cls-5" d="M30.69,15.87a8.39,8.39,0,0,1,1-.06,8.39,8.39,0,0,0-1,.06"></path><path class="cls-4" d="M30.55,15.88h0"></path><path class="cls-4" d="M30.68,32.79h0"></path><polyline class="cls-4" points="29.65 16.04 29.65 16.04 29.66 16.04 29.65 16.04"></polyline><path class="cls-4" d="M29.65,32.53"></path><path class="cls-4" d="M31.65,15.81a8.39,8.39,0,0,0-1,.06h-.14a8.72,8.72,0,0,0-.89.16h0c3.23.73,5.6,3.31,5.6,7.58s-2.37,7.84-5.6,8.91h0a5.4,5.4,0,0,0,.9.23h.13a6.74,6.74,0,0,0,1,.08c4.2,0,7.6-4.14,7.6-9.25s-3.4-7.81-7.6-7.81"></path><path class="cls-5" d="M38.45,21.94l.64-.15-.64.15"></path><path class="cls-4" d="M31.47,32.86Z"></path><path class="cls-4" d="M36.16,22.23h0a14.63,14.63,0,0,0,2.29-.29,14.63,14.63,0,0,1-2.29.29"></path><path class="cls-4" d="M39.09,21.79l-.64.15a14.63,14.63,0,0,1-2.29.29,10.85,10.85,0,0,1,.09,1.4,10.59,10.59,0,0,1-4.78,9.23h.18c4.2,0,7.6-4.14,7.6-9.25a10.2,10.2,0,0,0-.16-1.83"></path><path class="cls-4" d="M37.55,34.87a3.55,3.55,0,0,1-1.61-2.16,3.55,3.55,0,0,0,1.61,2.16"></path><path class="cls-4" d="M35.16,32.68a7.74,7.74,0,0,1-2.29.82l.18.71v.14h2.8a4.59,4.59,0,0,1-.68-1.45Z"></path><path class="cls-4" d="M35.49,30.94H32.22l.28,1.11a6,6,0,0,0,1.3-.36h1.1l.26,1a6.68,6.68,0,0,0,.67-.41Z"></path><polygon class="cls-6" points="27.44 30.29 27.43 30.29 27.44 30.3 27.44 30.29"></polygon><path class="cls-6" d="M71.09,58.45l-5-9a.76.76,0,0,0-.66-.39H48.5V41.38a6.07,6.07,0,0,0-5-6h-.15l-4.43-.77a2.66,2.66,0,0,1-.61-.18l0,0h-.06a2.77,2.77,0,0,1-1.56-1.87l-.2-.76a10,10,0,0,0,3-4.71l0-.12c.07-.23.13-.47.18-.71l.12-.54,0-.24A10.12,10.12,0,0,0,40,23.62a11.18,11.18,0,0,0-.17-2,1,1,0,0,0,0-.1,7.85,7.85,0,0,0-8.14-6.46,7.83,7.83,0,0,0-7.95,5.71s0,.06-.05.09c0,.2-.08.4-.12.6s-.06.31-.08.47-.06.36-.08.55-.05.68-.06,1v.09h0a.49.49,0,0,0,0,.12,10.27,10.27,0,0,0,.34,2.71l.06.24c.05.18.1.35.16.53a10,10,0,0,0,2.92,4.52h0l-.2.8A2.82,2.82,0,0,1,25,34.42h0a2.29,2.29,0,0,1-.63.19L20,35.38a6.09,6.09,0,0,0-5,6v7.68H11.43a.74.74,0,0,0-.65.39l-5,9a.75.75,0,0,0,0,.74.74.74,0,0,0,.64.37H9.67V77.81a.76.76,0,0,0,.75.75h0a.74.74,0,0,0,.73-.75V72.56h54.5v5.25a.76.76,0,0,0,.75.75h0a.74.74,0,0,0,.73-.75V59.56h3.27a.74.74,0,0,0,.65-.37A.75.75,0,0,0,71.09,58.45Zm-33-22.51.57.15,4.44.77a4.57,4.57,0,0,1,3.8,4.52v7.68H41.75v-5.9a.75.75,0,0,0-1.5,0v5.9H32.41V40ZM31.65,16.56a6.35,6.35,0,0,1,6.52,4.64,11.73,11.73,0,0,1-6.27-.36,13,13,0,0,0-6.34-.75A6.38,6.38,0,0,1,31.65,16.56ZM25.51,27.33a2.44,2.44,0,0,1-.1-.24l-.12-.35a10.56,10.56,0,0,1-.48-3.12,7.94,7.94,0,0,1,0-.85c0-.12,0-.24,0-.35s.05-.34.08-.51,0-.13,0-.19a11.57,11.57,0,0,1,6.38.56,13,13,0,0,0,7.06.42s0,0,0,.06v.86a9.34,9.34,0,0,1-2.63,6.68s0,0,0,0a6.51,6.51,0,0,1-2,1.33l-.12.06a6.64,6.64,0,0,1-1.16.32l-.21,0-.21,0-.52,0a5.67,5.67,0,0,1-1-.1l-.14,0a5.82,5.82,0,0,1-1-.3h0a7,7,0,0,1-2-1.35l0,0h0A9.26,9.26,0,0,1,25.51,27.33Zm1.9,7h0a4.48,4.48,0,0,0,.68-1.43l0-.2L28,32.59l.16.09h0l.07,0a5,5,0,0,0,.52.26c.12.05.23.11.35.15l.37.13.48.15.21,0a6.84,6.84,0,0,0,1.5.18l.27,0a5.83,5.83,0,0,0,.84-.08h.11a7.32,7.32,0,0,0,2.27-.8l0,.2a4.59,4.59,0,0,0,.68,1.45h0a4,4,0,0,0,.71.78l-4.94,3.55-4-2.83-.93-.74A3.93,3.93,0,0,0,27.41,34.35ZM24.62,35s0,0,0,.06,0,0,0-.06ZM16.4,41.38a4.57,4.57,0,0,1,3.81-4.52l4.44-.77a3.83,3.83,0,0,0,.58-.16L30.91,40v9.07H23.07v-5.9a.75.75,0,0,0-1.5,0v5.9H16.4ZM65.67,71.06H11.17V59.56h54.5Zm.75-13H7.7l4.17-7.5H65l4.15,7.5Z"></path><path class="cls-6" d="M43.64,63.56H58.43a.75.75,0,1,0,0-1.5H43.64a.75.75,0,0,0,0,1.5Z"></path><path class="cls-6" d="M37.43,63.56h2.21a.75.75,0,0,0,0-1.5H37.43a.75.75,0,0,0,0,1.5Z"></path><path class="cls-4" d="M68.42,42.56h-4a.75.75,0,0,1,0-1.5h4a.75.75,0,0,1,0,1.5"></path><path class="cls-4" d="M66.42,44.56a.77.77,0,0,1-.75-.75v-4a.75.75,0,0,1,1.5,0v4a.76.76,0,0,1-.75.75"></path><path class="cls-4" d="M10.42,34.56h-4a.75.75,0,0,1,0-1.5h4a.75.75,0,1,1,0,1.5"></path><path class="cls-4" d="M8.42,36.56a.76.76,0,0,1-.75-.75v-4a.75.75,0,0,1,1.5,0h0v4a.77.77,0,0,1-.75.75"></path><path class="cls-4" d="M17.42,23.56h-4a.75.75,0,1,1,0-1.5h4a.75.75,0,0,1,0,1.5"></path><path class="cls-4" d="M15.42,25.56a.76.76,0,0,1-.75-.75v-4a.75.75,0,0,1,1.5,0v4a.77.77,0,0,1-.75.75"></path></g></svg>