<svg xmlns="http://www.w3.org/2000/svg" xmlns:xlink="http://www.w3.org/1999/xlink" id="Layer_1" data-name="Layer 1" viewBox="0 0 90.25 93.68"><defs><style>.cls-1{fill:none;}.cls-2{clip-path:url(#clip-path);}.cls-3{fill:#e4f3f4;}.cls-4{fill:#01b4d9;}.cls-5{fill:#fff;}.cls-6{fill:#00224f;}</style><clipPath id="clip-path" transform="translate(0 0)"><rect class="cls-1" width="90.25" height="93.68"></rect></clipPath></defs><title>15</title><g class="cls-2"><path class="cls-3" d="M28,59.25a14,14,0,1,1-14-14,14,14,0,0,1,14,14" transform="translate(0 0)"></path><path class="cls-3" d="M54,12A12,12,0,1,1,42,0,12,12,0,0,1,54,12" transform="translate(0 0)"></path><path class="cls-3" d="M90.25,73.68a20,20,0,1,1-20-20,20,20,0,0,1,20,20" transform="translate(0 0)"></path><path class="cls-4" d="M56.3,66.51A64.31,64.31,0,0,1,24.67,34.88a63.77,63.77,0,0,1-5.29-18.7H15a69,69,0,0,0,5.71,20.16,69.34,69.34,0,0,0,34.1,34.1A68.65,68.65,0,0,0,75,76.14V71.8a63.86,63.86,0,0,1-18.7-5.29" transform="translate(0 0)"></path><path class="cls-4" d="M30.73,31a63.56,63.56,0,0,1-4.4-11.86,4,4,0,0,0-3.86-3H22.2c0,.12.09.24.13.37a63.59,63.59,0,0,0,5.45,13.89,1.24,1.24,0,0,1-1.08,1.84H23.56c.35.88.72,1.75,1.11,2.6h3.68A2.67,2.67,0,0,0,30.73,31" transform="translate(0 0)"></path><path class="cls-5" d="M57,61.08l.26-.24a3,3,0,0,0-.26.24" transform="translate(0 0)"></path><path class="cls-5" d="M58.6,60.19a2.06,2.06,0,0,1,.26,0,2.06,2.06,0,0,0-.26,0" transform="translate(0 0)"></path><path class="cls-5" d="M56.38,62.19c0-.14.1-.27.15-.41-.05.14-.11.27-.15.41" transform="translate(0 0)"></path><path class="cls-5" d="M58,60.36l.27-.1-.27.1" transform="translate(0 0)"></path><path class="cls-5" d="M57.43,60.67a1.81,1.81,0,0,1,.27-.18,1.81,1.81,0,0,0-.27.18" transform="translate(0 0)"></path><path class="cls-5" d="M75,71.8h0l-1.2-.17c.4.06.8.13,1.2.18" transform="translate(0 0)"></path><path class="cls-5" d="M59.27,60.18a1.66,1.66,0,0,1,.22,0,1.66,1.66,0,0,0-.22,0" transform="translate(0 0)"></path><path class="cls-5" d="M72.92,71.5l-1.42-.25,1.42.25" transform="translate(0 0)"></path><path class="cls-5" d="M56.61,61.6a3.7,3.7,0,0,1,.21-.33,3.7,3.7,0,0,0-.21.33" transform="translate(0 0)"></path><path class="cls-5" d="M70.8,71.13l-1.52-.32,1.52.32" transform="translate(0 0)"></path><path class="cls-4" d="M56.53,61.78l.08-.18-.08.18" transform="translate(0 0)"></path><path class="cls-4" d="M56.38,62.19" transform="translate(0 0)"></path><path class="cls-4" d="M73.74,71.62h0" transform="translate(0 0)"></path><path class="cls-4" d="M58.86,60.16a2.88,2.88,0,0,1,.41,0,2.88,2.88,0,0,0-.41,0" transform="translate(0 0)"></path><path class="cls-4" d="M59.49,60.21a2.66,2.66,0,0,1,.64.21,2.66,2.66,0,0,0-.64-.21" transform="translate(0 0)"></path><path class="cls-4" d="M73.77,71.62h0" transform="translate(0 0)"></path><path class="cls-4" d="M57.22,60.84a1.2,1.2,0,0,1,.21-.17,1.2,1.2,0,0,0-.21.17" transform="translate(0 0)"></path><path class="cls-4" d="M56.82,61.27l.14-.19-.14.19" transform="translate(0 0)"></path><path class="cls-4" d="M58.25,60.26l.35-.07-.35.07" transform="translate(0 0)"></path><path class="cls-4" d="M57.7,60.49l.28-.13-.28.13" transform="translate(0 0)"></path><path class="cls-4" d="M72,64.84a62.86,62.86,0,0,1-11.88-4.42,2.66,2.66,0,0,0-.64-.21,1.66,1.66,0,0,0-.22,0,2.88,2.88,0,0,0-.41,0,2.06,2.06,0,0,0-.26,0l-.35.07-.27.1-.28.13-.27.17-.21.18a2,2,0,0,0-.26.24l-.14.19a3.7,3.7,0,0,0-.21.33l-.08.18c-.05.14-.11.27-.15.41a2.7,2.7,0,0,1,.75.23,63.69,63.69,0,0,0,13.16,4.75A2.2,2.2,0,0,1,72,69.3v2l.91.16.83.12h0l1.23.17V68.71a4,4,0,0,0-3-3.87" transform="translate(0 0)"></path><path class="cls-4" d="M73.8,71.63l1.2.16-1.23-.17h0" transform="translate(0 0)"></path><path class="cls-6" d="M75.75,71.8h0V68.71a4.76,4.76,0,0,0-3.55-4.59,63,63,0,0,1-11.74-4.37,3.42,3.42,0,0,0-4.91,3.08v2.48A63.49,63.49,0,0,1,25.87,35.63h2.48A3.38,3.38,0,0,0,31.24,34a3.42,3.42,0,0,0,.17-3.35A63.05,63.05,0,0,1,27.05,19a4.73,4.73,0,0,0-4.58-3.53H15a4.79,4.79,0,0,0-3.48,1.51,4.61,4.61,0,0,0-1.26,3.49A65,65,0,0,0,70.74,80.92h.31a4.67,4.67,0,0,0,3.19-1.27,4.82,4.82,0,0,0,1.51-3.5V71.8ZM58,61.19a1.86,1.86,0,0,1,1.84-.09,64.32,64.32,0,0,0,12,4.47,3.26,3.26,0,0,1,2.43,3.14v2.22l-.25,0a63.74,63.74,0,0,1-7-1.4l-.07,0a61.8,61.8,0,0,1-7-2.28h0L59.37,67c-.61-.24-1.21-.5-1.81-.76L57.05,66V62.83A1.93,1.93,0,0,1,58,61.19ZM25.6,19.34a64.36,64.36,0,0,0,4.46,12,2,2,0,0,1-.09,1.9,1.88,1.88,0,0,1-1.62.89H25.17c-.17-.36-.32-.72-.48-1.08s-.23-.55-.35-.82c-.2-.51-.4-1-.59-1.53l-.25-.63c-.27-.73-.52-1.47-.76-2.21v0c-.24-.73-.46-1.47-.67-2.21l-.18-.69c-.14-.52-.29-1-.41-1.56-.07-.29-.13-.58-.2-.87-.11-.47-.22-.94-.31-1.41-.07-.31-.13-.63-.19-.94s-.17-.91-.24-1.36-.11-.66-.16-1l-.12-.88h2.22A3.23,3.23,0,0,1,25.6,19.34ZM74.25,76.16a3.3,3.3,0,0,1-1,2.4,3.12,3.12,0,0,1-2.37.86A63.45,63.45,0,0,1,11.76,20.33,3.12,3.12,0,0,1,12.61,18a3.32,3.32,0,0,1,2.39-1h3.72c0,.31.1.62.14.93L19,19c.07.44.16.87.24,1.31s.13.72.2,1.08l.3,1.34c.08.34.15.69.24,1s.24.91.36,1.36.17.66.26,1,.28.93.42,1.39c.1.31.19.62.29.93.16.48.33,1,.5,1.43l.29.86c.21.55.43,1.1.65,1.64.08.2.15.41.23.61.31.75.63,1.49,1,2.23a65,65,0,0,0,32,32q1.09.51,2.22,1l.78.31c.49.19,1,.39,1.47.57l1,.35,1.3.45,1,.32,1.27.39,1.07.28,1.27.34,1.09.25,1.28.28,1.12.22,1.27.23,1.16.18.93.14Z" transform="translate(0 0)"></path><path class="cls-4" d="M71,16.18H68a3,3,0,0,1,3,3v31a.5.5,0,0,1-.79.4l-5.43-3.87A3,3,0,0,0,63,46.18H44a3,3,0,0,1-3-3v3a4,4,0,0,0,4,4H63l12,8v-38a4,4,0,0,0-4-4" transform="translate(0 0)"></path><path class="cls-6" d="M75,58.93a.72.72,0,0,1-.42-.13L62.77,50.93H45a4.75,4.75,0,0,1-4.75-4.75v-26A4.75,4.75,0,0,1,45,15.43H71a4.75,4.75,0,0,1,4.75,4.75v38a.76.76,0,0,1-.75.75m-30-42a3.26,3.26,0,0,0-3.25,3.25v26A3.26,3.26,0,0,0,45,49.43H63a.72.72,0,0,1,.42.13l10.83,7.22V20.18A3.26,3.26,0,0,0,71,16.93Z" transform="translate(0 0)"></path><path class="cls-4" d="M68.08,29.51H66.25v3.67a.92.92,0,0,1-.92.92H60.75a1.83,1.83,0,0,0-1.83,1.83v4.58a.92.92,0,0,1-.92.92H54.33v1.83a.92.92,0,0,0,.92.92h5.5a.92.92,0,0,0,.92-.92V36.85h6.41a.92.92,0,0,0,.92-.92v-5.5a.92.92,0,0,0-.92-.92" transform="translate(0 0)"></path><path class="cls-5" d="M47.92,29.51a.92.92,0,0,0-.92.92.92.92,0,0,1,.92-.92" transform="translate(0 0)"></path><path class="cls-6" d="M60.75,44.93h-5.5a1.67,1.67,0,0,1-1.67-1.67V37.6H47.92a1.67,1.67,0,0,1-1.67-1.67v-5.5a1.67,1.67,0,0,1,1.67-1.67h5.66V23.1a1.67,1.67,0,0,1,1.67-1.67h5.5a1.67,1.67,0,0,1,1.67,1.67v5.66h5.66a1.67,1.67,0,0,1,1.67,1.67v5.5a1.67,1.67,0,0,1-1.67,1.67H62.42v5.66a1.67,1.67,0,0,1-1.67,1.67M47.92,30.26a.17.17,0,0,0-.17.17v5.5a.17.17,0,0,0,.17.17h6.41a.74.74,0,0,1,.75.75v6.41a.17.17,0,0,0,.17.17h5.5a.17.17,0,0,0,.17-.17V36.85a.74.74,0,0,1,.75-.75h6.41a.18.18,0,0,0,.17-.17v-5.5a.18.18,0,0,0-.17-.17H61.67a.74.74,0,0,1-.75-.75V23.1a.17.17,0,0,0-.17-.17h-5.5a.17.17,0,0,0-.17.17v6.41a.74.74,0,0,1-.75.75Z" transform="translate(0 0)"></path><path class="cls-4" d="M28.39,77.93H27a.75.75,0,0,1,0-1.5h1.39a.75.75,0,0,1,0,1.5" transform="translate(0 0)"></path><path class="cls-4" d="M33,77.93H31.62a.75.75,0,0,1,0-1.5H33a.75.75,0,0,1,0,1.5" transform="translate(0 0)"></path><path class="cls-4" d="M30,80.93a.76.76,0,0,1-.75-.75V78.79a.75.75,0,0,1,1.5,0v1.39a.75.75,0,0,1-.75.75" transform="translate(0 0)"></path><path class="cls-4" d="M30,76.31a.75.75,0,0,1-.75-.75V74.18a.75.75,0,0,1,1.5,0v1.38a.74.74,0,0,1-.75.75" transform="translate(0 0)"></path><path class="cls-4" d="M15.38,57.93H14a.75.75,0,0,1,0-1.5h1.38a.75.75,0,0,1,0,1.5" transform="translate(0 0)"></path><path class="cls-4" d="M20,57.93H18.61a.75.75,0,1,1,0-1.5H20a.75.75,0,1,1,0,1.5" transform="translate(0 0)"></path><path class="cls-4" d="M17,60.93a.76.76,0,0,1-.75-.75V58.79a.75.75,0,1,1,1.5,0v1.39a.76.76,0,0,1-.75.75" transform="translate(0 0)"></path><path class="cls-4" d="M17,56.31a.76.76,0,0,1-.75-.75V54.18a.75.75,0,0,1,1.5,0v1.38a.76.76,0,0,1-.75.75" transform="translate(0 0)"></path><path class="cls-4" d="M12.38,69.93H11a.75.75,0,0,1,0-1.5h1.38a.75.75,0,0,1,0,1.5" transform="translate(0 0)"></path><path class="cls-4" d="M17,69.93H15.61a.75.75,0,0,1,0-1.5H17a.75.75,0,0,1,0,1.5" transform="translate(0 0)"></path><path class="cls-4" d="M14,72.93a.76.76,0,0,1-.75-.75V70.79a.75.75,0,0,1,1.5,0v1.39a.76.76,0,0,1-.75.75" transform="translate(0 0)"></path><path class="cls-4" d="M14,68.31a.75.75,0,0,1-.75-.75V66.18a.75.75,0,0,1,1.5,0v1.38a.75.75,0,0,1-.75.75" transform="translate(0 0)"></path></g></svg>