<svg xmlns="http://www.w3.org/2000/svg" xmlns:xlink="http://www.w3.org/1999/xlink" id="Layer_1" data-name="Layer 1" viewBox="0 0 83.71 78.31"><defs><style>.cls-1{fill:none;}.cls-2{clip-path:url(#clip-path);}.cls-3{fill:#e2f2f0;}.cls-4{fill:#fff;}.cls-5{fill:#39cabb;}.cls-6{fill:#061a3a;}</style><clipPath id="clip-path" transform="translate(0 0)"><rect class="cls-1" width="83.71" height="78.31"></rect></clipPath></defs><title>16</title><g class="cls-2"><path class="cls-3" d="M83.71,29.48a14,14,0,1,1-14-14,14,14,0,0,1,14,14" transform="translate(0 0)"></path><path class="cls-3" d="M36.19,12a12,12,0,1,1-12-12,12,12,0,0,1,12,12" transform="translate(0 0)"></path><path class="cls-3" d="M40,58.31a20,20,0,1,1-20-20,20,20,0,0,1,20,20" transform="translate(0 0)"></path><path class="cls-4" d="M71.72,34h-60a2,2,0,0,0-2,2V60a2,2,0,0,0,2,2h17l13,11,13-11h17a2,2,0,0,0,2-2V36a2,2,0,0,0-2-2" transform="translate(0 0)"></path><path class="cls-5" d="M71.72,34h-1l-3,25-15-1L35.23,67.51,41.72,73l13-11h17a2,2,0,0,0,2-2V36a2,2,0,0,0-2-2" transform="translate(0 0)"></path><polygon class="cls-5" points="41.72 36 65.72 54.67 17.72 54.67 41.72 36"></polygon><polygon class="cls-4" points="41.72 45.33 47.72 40.67 57.15 51.71 17.72 54.67 35.72 40.67 41.72 45.33"></polygon><polygon class="cls-5" points="41.72 45.33 17.72 26.67 65.72 26.67 41.72 45.33"></polygon><polygon class="cls-4" points="41.72 45.33 26.72 29.63 65.72 26.67 41.72 45.33"></polygon><path class="cls-6" d="M57.71,13.75a.75.75,0,0,1-.38-.1c-8.61-5.2-22.62-5.2-31.23,0a.76.76,0,0,1-1-.26.75.75,0,0,1,.26-1c9-5.45,23.74-5.45,32.77,0a.75.75,0,0,1-.39,1.39" transform="translate(0 0)"></path><path class="cls-6" d="M52.71,18.13a.76.76,0,0,1-.38-.11C46.48,14.49,37,14.49,31.1,18a.76.76,0,0,1-1-.25.75.75,0,0,1,.26-1C36.61,13,46.82,13,53.1,16.74a.75.75,0,0,1,.26,1,.76.76,0,0,1-.65.36" transform="translate(0 0)"></path><path class="cls-6" d="M47.71,22.5a.67.67,0,0,1-.38-.11,12,12,0,0,0-11.23,0,.75.75,0,1,1-.77-1.28,13.39,13.39,0,0,1,12.77,0,.75.75,0,0,1,.26,1,.76.76,0,0,1-.65.36" transform="translate(0 0)"></path><polygon class="cls-5" points="17.72 26.67 17.72 54.67 35.72 40.67 17.72 26.67"></polygon><polygon class="cls-5" points="65.72 54.67 65.72 26.67 47.72 40.67 65.72 54.67"></polygon><polygon class="cls-4" points="17.72 26.67 20.84 48.13 35.72 40.67 17.72 26.67"></polygon><polygon class="cls-4" points="65.72 54.67 62.51 33.29 47.72 40.67 65.72 54.67"></polygon><path class="cls-1" d="M42.18,45.92a.74.74,0,0,1-.46.16.7.7,0,0,1-.46-.16l-5.54-4.3L19.9,53.92H63.53L47.72,41.62Z" transform="translate(0 0)"></path><path class="cls-1" d="M41.26,35.41a.75.75,0,0,1,.92,0l5.53,4.31,15.82-12.3H19.9l5,3.88,10.83,8.42Z" transform="translate(0 0)"></path><polygon class="cls-1" points="46.49 40.67 41.72 36.95 36.94 40.67 41.72 44.38 46.49 40.67"></polygon><polygon class="cls-1" points="18.47 28.2 18.47 53.13 29.67 44.42 34.49 40.67 18.47 28.2"></polygon><polygon class="cls-1" points="64.97 53.13 64.97 28.2 48.94 40.67 64.97 53.13"></polygon><path class="cls-6" d="M66.18,55.25l-.08,0Z" transform="translate(0 0)"></path><path class="cls-6" d="M66,55.35a.77.77,0,0,1-.29.07A.73.73,0,0,0,66,55.35Z" transform="translate(0 0)"></path><path class="cls-6" d="M66.42,54.91h0l0,.06S66.42,54.93,66.42,54.91Z" transform="translate(0 0)"></path><path class="cls-6" d="M66.46,54.67v0Z" transform="translate(0 0)"></path><path class="cls-6" d="M66.33,55.09l-.06.07Z" transform="translate(0 0)"></path><path class="cls-6" d="M17.16,55.16l-.06-.07Z" transform="translate(0 0)"></path><polygon class="cls-6" points="18.47 53.13 29.67 44.42 18.47 53.13 18.47 53.13"></polygon><path class="cls-6" d="M17,54.91s0,0,0,.05l0-.07Z" transform="translate(0 0)"></path><path class="cls-6" d="M17.71,55.42a.77.77,0,0,1-.29-.07A.73.73,0,0,0,17.71,55.42Z" transform="translate(0 0)"></path><path class="cls-6" d="M17.33,55.3l-.08,0Z" transform="translate(0 0)"></path><path class="cls-6" d="M17,54.73v0Z" transform="translate(0 0)"></path><path class="cls-6" d="M66.46,26.61v0Z" transform="translate(0 0)"></path><path class="cls-6" d="M66.42,26.42a.08.08,0,0,0,0,0l0,.06Z" transform="translate(0 0)"></path><path class="cls-6" d="M17,26.66v0Z" transform="translate(0 0)"></path><path class="cls-6" d="M17,26.42v0a.25.25,0,0,1,0-.07S17,26.4,17,26.42Z" transform="translate(0 0)"></path><path class="cls-6" d="M66.1,26l.08,0Z" transform="translate(0 0)"></path><path class="cls-6" d="M65.9,26,66,26Z" transform="translate(0 0)"></path><path class="cls-6" d="M17.25,26.09l.08-.06Z" transform="translate(0 0)"></path><path class="cls-6" d="M17.44,26a.16.16,0,0,1,.09,0A.16.16,0,0,0,17.44,26Z" transform="translate(0 0)"></path><path class="cls-6" d="M17.1,26.24l.06-.07Z" transform="translate(0 0)"></path><path class="cls-6" d="M66.27,26.18l.06.06Z" transform="translate(0 0)"></path><polygon class="cls-6" points="48.94 40.67 48.94 40.67 64.97 28.2 64.97 28.2 48.94 40.67"></polygon><polygon class="cls-6" points="24.89 31.3 35.72 39.72 35.72 39.72 24.89 31.3"></polygon><polygon class="cls-6" points="35.72 41.62 19.9 53.92 19.9 53.92 35.72 41.62 35.72 41.62"></polygon><path class="cls-6" d="M17,26.61l0-.17Z" transform="translate(0 0)"></path><path class="cls-6" d="M17.16,26.17l.09-.08Z" transform="translate(0 0)"></path><path class="cls-6" d="M17,26.37a.75.75,0,0,1,.06-.13A.38.38,0,0,0,17,26.37Z" transform="translate(0 0)"></path><path class="cls-6" d="M17.1,55.09S17.05,55,17,55A.54.54,0,0,0,17.1,55.09Z" transform="translate(0 0)"></path><path class="cls-6" d="M17.25,55.25l-.09-.09Z" transform="translate(0 0)"></path><path class="cls-6" d="M17,54.89l0-.16Z" transform="translate(0 0)"></path><path class="cls-6" d="M17.39,55.34h0l-.09-.05Z" transform="translate(0 0)"></path><path class="cls-6" d="M17.53,26l.13,0Z" transform="translate(0 0)"></path><polygon class="cls-6" points="17.71 55.42 17.72 55.42 17.72 55.42 17.71 55.42 17.71 55.42"></polygon><polygon class="cls-6" points="19.9 27.42 24.89 31.3 19.9 27.42 19.9 27.42"></polygon><path class="cls-6" d="M17.39,26l-.06,0,.11-.05Z" transform="translate(0 0)"></path><polygon class="cls-6" points="36.18 41.26 36.18 41.26 35.72 41.62 35.72 41.62 36.18 41.26"></polygon><path class="cls-6" d="M66,55.34l.06,0-.09.05Z" transform="translate(0 0)"></path><path class="cls-6" d="M66.46,54.72a1.13,1.13,0,0,1,0,.18Z" transform="translate(0 0)"></path><path class="cls-6" d="M66.27,55.16l-.09.09Z" transform="translate(0 0)"></path><path class="cls-6" d="M66.4,55a.83.83,0,0,1-.07.13A.83.83,0,0,0,66.4,55Z" transform="translate(0 0)"></path><polygon class="cls-6" points="65.72 55.42 65.72 55.42 65.72 55.42 65.72 55.42"></polygon><path class="cls-6" d="M65.77,25.92a.61.61,0,0,1,.13,0A.61.61,0,0,0,65.77,25.92Z" transform="translate(0 0)"></path><path class="cls-6" d="M66.33,26.24a.61.61,0,0,1,.07.14A.61.61,0,0,0,66.33,26.24Z" transform="translate(0 0)"></path><polygon class="cls-6" points="47.71 39.72 63.53 27.42 63.53 27.42 47.71 39.72 47.71 39.72"></polygon><path class="cls-6" d="M66.43,26.44a1,1,0,0,1,0,.17Z" transform="translate(0 0)"></path><path class="cls-6" d="M66,26,66,26l.11.06Z" transform="translate(0 0)"></path><path class="cls-6" d="M66.18,26.08l.09.1Z" transform="translate(0 0)"></path><polygon class="cls-6" points="63.53 53.92 63.53 53.92 47.72 41.62 47.72 41.62 63.53 53.92"></polygon><polygon class="cls-6" points="47.25 40.08 47.25 40.08 47.71 39.72 47.71 39.72 47.25 40.08"></polygon><polygon class="cls-6" points="47.25 41.26 47.72 41.62 47.72 41.62 47.25 41.26 47.25 41.26"></polygon><polygon class="cls-1" points="41.72 44.38 54.1 34.75 29.34 34.75 41.72 44.38"></polygon><path class="cls-1" d="M66.46,54.67v0a1.13,1.13,0,0,1,0,.18l0,.06a.83.83,0,0,1-.07.13l-.06.07-.09.09-.08,0-.09.05a.77.77,0,0,1-.29.07h-48a.77.77,0,0,1-.29-.07l-.09-.05-.08,0-.09-.09-.06-.07S17.05,55,17,55l0-.07,0-.16v-.06h0V34.75H11.72A1.25,1.25,0,0,0,10.47,36V60a1.25,1.25,0,0,0,1.25,1.25h17a.75.75,0,0,1,.48.18L41.72,72,54.24,61.43a.75.75,0,0,1,.48-.18h17A1.26,1.26,0,0,0,73,60V36a1.26,1.26,0,0,0-1.25-1.25H66.47V54.67Z" transform="translate(0 0)"></path><polygon class="cls-1" points="48.94 40.67 48.94 40.67 64.97 53.13 64.97 34.75 56.54 34.75 48.94 40.67"></polygon><polygon class="cls-1" points="18.47 28.2 18.47 33.25 24.96 33.25 18.47 28.2"></polygon><polygon class="cls-1" points="64.97 28.2 64.97 28.2 58.47 33.25 64.97 33.25 64.97 28.2"></polygon><polygon class="cls-1" points="63.53 27.42 63.53 27.42 19.9 27.42 19.9 27.42 27.41 33.25 56.02 33.25 63.53 27.42"></polygon><polygon class="cls-1" points="18.47 53.13 29.67 44.42 34.49 40.67 26.89 34.75 18.47 34.75 18.47 53.13 18.47 53.13"></polygon><path class="cls-1" d="M47.72,41.62l-5.54,4.3a.74.74,0,0,1-.46.16.7.7,0,0,1-.46-.16l-5.54-4.3L19.9,53.92H63.53L47.72,41.62Z" transform="translate(0 0)"></path><path class="cls-6" d="M71.72,33.25H66.47V26.67h0v-.05a1,1,0,0,0,0-.17l0-.06a.61.61,0,0,0-.07-.14l-.06-.06-.09-.1-.08,0L66,26l-.09,0a.61.61,0,0,0-.13,0H17.66l-.13,0a.16.16,0,0,0-.09,0l-.11.05-.08.06-.09.08-.06.07a.75.75,0,0,0-.06.13.25.25,0,0,0,0,.07l0,.17v.05h0v6.58H11.72A2.75,2.75,0,0,0,9,36V60a2.75,2.75,0,0,0,2.75,2.75H28.44l12.8,10.83a.76.76,0,0,0,.48.17.78.78,0,0,0,.48-.17L55,62.75H71.72A2.75,2.75,0,0,0,74.47,60V36A2.76,2.76,0,0,0,71.72,33.25ZM65,28.2V53.13l-16-12.46h0l7.6-5.92,1.93-1.5h0L65,28.2ZM63.53,53.92H19.9l15.82-12.3,5.54,4.3a.7.7,0,0,0,.46.16.74.74,0,0,0,.46-.16l5.54-4.3h0ZM19.9,27.42H63.53L56,33.25h0l-1.93,1.5L41.72,44.38,29.33,34.75l-1.92-1.5L19.9,27.42Zm-1.43.78L25,33.25l1.93,1.5,7.6,5.92-4.82,3.75-11.2,8.71h0V28.2ZM73,60a1.26,1.26,0,0,1-1.25,1.25h-17a.75.75,0,0,0-.48.18L41.72,72,29.2,61.43a.75.75,0,0,0-.48-.18h-17A1.25,1.25,0,0,1,10.47,60V36a1.25,1.25,0,0,1,1.25-1.25H17V54.67h0v.06l0,.16L17,55s0,.09.07.13l.06.07.09.09.08,0,.09.05a.77.77,0,0,0,.29.07h48a.77.77,0,0,0,.29-.07l.09-.05.08,0,.09-.09.06-.07A.83.83,0,0,0,66.4,55l0-.06a1.13,1.13,0,0,0,0-.18v0h0V34.75h5.25A1.26,1.26,0,0,1,73,36Z" transform="translate(0 0)"></path><path class="cls-6" d="M73.72,22.42h-4a.75.75,0,0,1,0-1.5h4a.75.75,0,0,1,0,1.5" transform="translate(0 0)"></path><path class="cls-6" d="M71.72,24.42a.75.75,0,0,1-.75-.75v-4a.75.75,0,0,1,1.5,0v4a.76.76,0,0,1-.75.75" transform="translate(0 0)"></path><path class="cls-6" d="M20.71,16.42h-4a.75.75,0,0,1,0-1.5h4a.75.75,0,1,1,0,1.5" transform="translate(0 0)"></path><path class="cls-6" d="M18.71,18.42a.76.76,0,0,1-.75-.75v-4a.75.75,0,0,1,1.5,0v4a.75.75,0,0,1-.75.75" transform="translate(0 0)"></path><path class="cls-6" d="M13.71,25.42h-4a.75.75,0,0,1,0-1.5h4a.75.75,0,0,1,0,1.5" transform="translate(0 0)"></path><path class="cls-6" d="M11.71,27.42a.76.76,0,0,1-.75-.75v-4a.75.75,0,0,1,1.5,0v4a.76.76,0,0,1-.75.75" transform="translate(0 0)"></path><path class="cls-6" d="M67.72,12.75h-4a.75.75,0,0,1,0-1.5h4a.75.75,0,0,1,0,1.5" transform="translate(0 0)"></path><path class="cls-6" d="M65.72,14.75A.74.74,0,0,1,65,14V10a.75.75,0,0,1,1.5,0v4a.75.75,0,0,1-.75.75" transform="translate(0 0)"></path></g></svg>