<svg xmlns="http://www.w3.org/2000/svg" xmlns:xlink="http://www.w3.org/1999/xlink" id="Layer_1" data-name="Layer 1" viewBox="0 0 74 78.99"><defs><style>.cls-1{fill:none;}.cls-2{clip-path:url(#clip-path);}.cls-3{fill:#f7eded;}.cls-4{fill:#fff;}.cls-5{fill:#fe5948;}.cls-6{fill:#061a3a;}</style><clipPath id="clip-path" transform="translate(0 0)"><rect class="cls-1" width="74" height="78.99"></rect></clipPath></defs><title>17</title><g class="cls-2"><path class="cls-3" d="M74,27.77a14,14,0,1,1-14-14,14,14,0,0,1,14,14" transform="translate(0 0)"></path><path class="cls-3" d="M61.39,67a12,12,0,1,1-12-12,12,12,0,0,1,12,12" transform="translate(0 0)"></path><path class="cls-3" d="M40,20A20,20,0,1,1,20,0,20,20,0,0,1,40,20" transform="translate(0 0)"></path><path class="cls-4" d="M42,67.49H34a3,3,0,1,1,0-6h8a3,3,0,1,1,0,6" transform="translate(0 0)"></path><path class="cls-5" d="M45,64.49H37a3,3,0,0,0-3,3h8a3,3,0,0,0,3-3" transform="translate(0 0)"></path><path class="cls-4" d="M66,39.49V33.27c0-12-12.53-21.78-28-21.78S10,21.24,10,33.27V31.49a28,28,0,0,1,56,0Z" transform="translate(0 0)"></path><path class="cls-5" d="M64.91,23.75a28.06,28.06,0,0,0-8.18-13.07A28,28,0,0,0,21,16a33.37,33.37,0,0,1,17-4.46c8.55,0,16.2,3,21.34,7.68A19.13,19.13,0,0,1,66,33.27V31.49a27.89,27.89,0,0,0-1.09-7.74" transform="translate(0 0)"></path><path class="cls-4" d="M20,53.49H18a2,2,0,0,1-2-2v-20a2,2,0,0,1,2-2h2a2,2,0,0,1,2,2v20a2,2,0,0,1-2,2" transform="translate(0 0)"></path><path class="cls-4" d="M58,53.49H56a2,2,0,0,1-2-2v-20a2,2,0,0,1,2-2h2a2,2,0,0,1,2,2v20a2,2,0,0,1-2,2" transform="translate(0 0)"></path><path class="cls-4" d="M45,52.49H35.3l-6.3,5v-25a2,2,0,0,1,2-2H45a2,2,0,0,1,2,2v18a2,2,0,0,1-2,2" transform="translate(0 0)"></path><path class="cls-4" d="M16,51.49a10,10,0,0,1,0-20Z" transform="translate(0 0)"></path><path class="cls-4" d="M60,31.49a10,10,0,0,1,0,20Z" transform="translate(0 0)"></path><path class="cls-5" d="M45,52.49a2,2,0,0,0,2-2v-16H35a1,1,0,0,0-1,1v18l1.3-1Z" transform="translate(0 0)"></path><path class="cls-5" d="M22,51.49v-18H21a2,2,0,0,0-2,2v18h1a2,2,0,0,0,2-2" transform="translate(0 0)"></path><path class="cls-5" d="M60,51.49v-18H59a2,2,0,0,0-2,2v18h1a2,2,0,0,0,2-2" transform="translate(0 0)"></path><path class="cls-5" d="M60,45.49v6a10,10,0,0,0,9.54-13,10,10,0,0,1-9.54,7" transform="translate(0 0)"></path><path class="cls-5" d="M16,36A10,10,0,0,0,9.75,49.29,10,10,0,0,0,16,51.49Z" transform="translate(0 0)"></path><path class="cls-6" d="M29,58.24a.71.71,0,0,1-.32-.07.76.76,0,0,1-.43-.68v-25A2.75,2.75,0,0,1,31,29.74H45a2.75,2.75,0,0,1,2.75,2.75v18A2.75,2.75,0,0,1,45,53.24H35.56l-6.09,4.84a.74.74,0,0,1-.47.16m2-27a1.25,1.25,0,0,0-1.25,1.25V55.94l5.08-4a.81.81,0,0,1,.47-.16H45a1.25,1.25,0,0,0,1.25-1.25v-18A1.25,1.25,0,0,0,45,31.24Z" transform="translate(0 0)"></path><path class="cls-1" d="M66,42.81a.75.75,0,0,1,.75.75V47.8a9.24,9.24,0,0,0-6-15.53V50.71a9.23,9.23,0,0,0,4.5-1.62V43.56A.76.76,0,0,1,66,42.81Z" transform="translate(0 0)"></path><path class="cls-1" d="M42,62.24H34a2.25,2.25,0,1,0,0,4.5h8a2.25,2.25,0,1,0,0-4.5Z" transform="translate(0 0)"></path><path class="cls-1" d="M59.25,31.49h0A1.25,1.25,0,0,0,58,30.24H56a1.25,1.25,0,0,0-1.25,1.25v20A1.25,1.25,0,0,0,56,52.74h2a1.25,1.25,0,0,0,1.25-1.25h0Z" transform="translate(0 0)"></path><path class="cls-1" d="M66,40.24a.76.76,0,0,1-.75-.75v-5.6a9.13,9.13,0,0,0-4.5-1.62V50.71a9.25,9.25,0,0,0,6-15.54v4.32A.75.75,0,0,1,66,40.24Z" transform="translate(0 0)"></path><path class="cls-1" d="M38,4.24A27.3,27.3,0,0,0,11.8,24C16.32,16.19,26.36,10.74,38,10.74S59.69,16.19,64.21,24A27.32,27.32,0,0,0,38,4.24Z" transform="translate(0 0)"></path><path class="cls-1" d="M38,4.24A27.3,27.3,0,0,0,11.8,24C16.32,16.19,26.36,10.74,38,10.74S59.69,16.19,64.21,24A27.32,27.32,0,0,0,38,4.24Z" transform="translate(0 0)"></path><path class="cls-1" d="M6.75,41.49a9.27,9.27,0,0,0,8.5,9.22V32.27a9.12,9.12,0,0,0-4.5,1.61v5.61a.75.75,0,0,1-1.5,0V35.17A9.21,9.21,0,0,0,6.75,41.49Z" transform="translate(0 0)"></path><rect class="cls-1" x="16.75" y="30.24" width="4.5" height="22.5" rx="1.25"></rect><path class="cls-6" d="M66.75,33.15V31.49a28.75,28.75,0,0,0-57.5,0v1.66a10.72,10.72,0,0,0,6.11,19.06,2.74,2.74,0,0,0,2.64,2h2a2.75,2.75,0,0,0,2.75-2.75v-20A2.75,2.75,0,0,0,20,28.74H18a2.74,2.74,0,0,0-2.64,2,10.66,10.66,0,0,0-4.56,1.34C11.58,21.05,23.48,12.24,38,12.24s26.43,8.81,27.21,19.87a10.7,10.7,0,0,0-4.56-1.34,2.75,2.75,0,0,0-2.65-2H56a2.75,2.75,0,0,0-2.75,2.75v20A2.75,2.75,0,0,0,56,54.24h2a2.74,2.74,0,0,0,2.65-2,10.84,10.84,0,0,0,4.6-1.34v3.63A9.26,9.26,0,0,1,56,63.74H45.68a3.76,3.76,0,0,0-3.68-3H34a3.75,3.75,0,1,0,0,7.5h8a3.76,3.76,0,0,0,3.68-3H56A10.76,10.76,0,0,0,66.75,54.49V49.84a10.7,10.7,0,0,0,0-16.69Zm-50-1.66A1.25,1.25,0,0,1,18,30.24h2a1.25,1.25,0,0,1,1.25,1.25v20A1.25,1.25,0,0,1,20,52.74H18a1.25,1.25,0,0,1-1.25-1.25Zm-1.5.78V50.71a9.25,9.25,0,0,1-6-15.54,9.73,9.73,0,0,1,1.5-1.29A9.12,9.12,0,0,1,15.25,32.27ZM38,10.74c-11.64,0-21.68,5.45-26.2,13.26a27.26,27.26,0,0,1,52.41,0C59.69,16.19,49.64,10.74,38,10.74Zm20,42H56a1.25,1.25,0,0,1-1.25-1.25v-20A1.25,1.25,0,0,1,56,30.24h2a1.25,1.25,0,0,1,1.25,1.24h0v20h0A1.25,1.25,0,0,1,58,52.74Zm-16,14H34a2.25,2.25,0,1,1,0-4.5h8a2.25,2.25,0,1,1,0,4.5ZM66.75,47.8a9.35,9.35,0,0,1-6,2.91V32.27a9.13,9.13,0,0,1,4.5,1.62,8.75,8.75,0,0,1,1.5,1.28,9.23,9.23,0,0,1,0,12.63Z" transform="translate(0 0)"></path><path class="cls-6" d="M28.34,23.24h-4a.75.75,0,0,1,0-1.5h4a.75.75,0,0,1,0,1.5" transform="translate(0 0)"></path><path class="cls-6" d="M26.34,25.24a.75.75,0,0,1-.75-.75v-4a.75.75,0,0,1,1.5,0v4a.76.76,0,0,1-.75.75" transform="translate(0 0)"></path><path class="cls-6" d="M16.5,61.24h-4a.75.75,0,0,1,0-1.5h4a.75.75,0,1,1,0,1.5" transform="translate(0 0)"></path><path class="cls-6" d="M14.5,63.24a.75.75,0,0,1-.75-.75v-4a.75.75,0,0,1,1.5,0v4a.76.76,0,0,1-.75.75" transform="translate(0 0)"></path><path class="cls-6" d="M66,8.13H62a.75.75,0,1,1,0-1.5h4a.75.75,0,0,1,0,1.5" transform="translate(0 0)"></path><path class="cls-6" d="M64,10.13a.76.76,0,0,1-.75-.75v-4a.75.75,0,1,1,1.5,0v4a.75.75,0,0,1-.75.75" transform="translate(0 0)"></path><path class="cls-6" d="M37.34,18.24h-4a.75.75,0,0,1,0-1.5h4a.75.75,0,0,1,0,1.5" transform="translate(0 0)"></path><path class="cls-6" d="M35.34,20.24a.75.75,0,0,1-.75-.75v-4a.75.75,0,0,1,1.5,0v4a.76.76,0,0,1-.75.75" transform="translate(0 0)"></path><path class="cls-6" d="M52.46,25.67h-4a.75.75,0,1,1,0-1.5h4a.75.75,0,0,1,0,1.5" transform="translate(0 0)"></path><path class="cls-6" d="M50.46,27.67a.75.75,0,0,1-.75-.75v-4a.75.75,0,1,1,1.5,0v4a.74.74,0,0,1-.75.75" transform="translate(0 0)"></path></g></svg>