<svg xmlns="http://www.w3.org/2000/svg" id="Layer_1" data-name="Layer 1" viewBox="0 0 84.51 75"><defs><style>.cls-1{fill:#e4f3f4;}.cls-2{fill:#01b4d9;}.cls-3{fill:#061a3a;}</style></defs><title>18</title><path class="cls-1" d="M84.51,27.46a14,14,0,1,1-14-14,14,14,0,0,1,14,14"></path><path class="cls-1" d="M39.75,63a12,12,0,1,1-12-12,12,12,0,0,1,12,12"></path><path class="cls-1" d="M40,20A20,20,0,1,1,20,0,20,20,0,0,1,40,20"></path><path class="cls-2" d="M41.62,4.21A31.84,31.84,0,0,0,26.26,8.13v6.26A28.87,28.87,0,0,1,65.19,41.45c0,.93,0,1.85-.14,2.76h7.56a32,32,0,0,0-31-40"></path><path class="cls-2" d="M21.26,44.21h5v-18h-15a32.11,32.11,0,0,0-1.21,5h9.24a2,2,0,0,1,2,2Z"></path><path class="cls-2" d="M26.26,14.39V8.13a32.11,32.11,0,0,0-15,18.07h.57A29,29,0,0,1,26.26,14.39"></path><path class="cls-2" d="M26.26,44.21H10.63a30.83,30.83,0,0,0,1.75,5h6.88a2,2,0,0,1,2,2v9.67a31.67,31.67,0,0,0,5,3.4Z"></path><path class="cls-2" d="M38.26,51.21V68c1.11.11,2.22.19,3.36.19.55,0,1.1,0,1.64,0V44.21h-17v5h10a2,2,0,0,1,2,2"></path><path class="cls-2" d="M59.07,59.21h4.79a31.91,31.91,0,0,0,8.75-15H65.05a28.69,28.69,0,0,1-6,15"></path><path class="cls-2" d="M49.16,67.31a31.93,31.93,0,0,0,14.7-8.1H59.07a29,29,0,0,1-9.91,8.1"></path><path class="cls-2" d="M60.33,18.06a16.57,16.57,0,0,0-23.43,0,17.22,17.22,0,0,0-1.33,1.52A16.57,16.57,0,0,1,57.48,44.35l2.85-2.86a16.57,16.57,0,0,0,0-23.43"></path><path class="cls-3" d="M41.62,3.46a32.86,32.86,0,0,0-15.72,4h0A32.7,32.7,0,0,0,10.52,26h0A32.46,32.46,0,0,0,8.87,36.21a33,33,0,0,0,1,8.18h0a32.83,32.83,0,0,0,16,20.55h0a32.76,32.76,0,0,0,15.72,4c.56,0,1.12,0,1.68,0h0a32.78,32.78,0,0,0,30-24.52h0A32.78,32.78,0,0,0,41.62,3.46ZM25.51,63a31.41,31.41,0,0,1-13.9-18h13.9Zm0-19.53H11.21a31.51,31.51,0,0,1-.84-7.25A31.1,31.1,0,0,1,11.78,27H25.51Zm0-18H12.29a31.11,31.11,0,0,1,13.22-16h0Zm17,33.76v8.23A31.21,31.21,0,0,1,27,63.83V45h12.3l3.2,3.2Zm0-13.17L41.43,45h0l-1.5-1.5h0L37.43,41A15.82,15.82,0,1,1,59.8,41l-2.49,2.5h0L55.81,45h0l-7.19,7.19L44,47.54ZM44,67.36V60H61.92A31.19,31.19,0,0,1,44,67.36ZM71.63,45a31.34,31.34,0,0,1-8.07,13.5H44v-8.8l4.08,4.08a.77.77,0,0,0,.53.22.79.79,0,0,0,.53-.22L57.93,45h13.7Zm-12.2-1.5L60.86,42a17.32,17.32,0,1,0-24.49,0l1.44,1.44H27V26.21h0V8.58A31.26,31.26,0,0,1,72,43.46Z"></path><path class="cls-2" d="M57.62,29.78A9,9,0,0,0,40.94,25.1a8.89,8.89,0,0,1,4.68-1.32A9,9,0,0,1,53.3,37.45a9,9,0,0,0,4.32-7.67"></path><path class="cls-3" d="M48.62,39.53a9.75,9.75,0,1,1,9.75-9.75,9.76,9.76,0,0,1-9.75,9.75m0-18a8.25,8.25,0,1,0,8.25,8.25,8.26,8.26,0,0,0-8.25-8.25"></path><path class="cls-3" d="M37,63.75A2.75,2.75,0,1,1,39.75,61,2.75,2.75,0,0,1,37,63.75m0-4A1.25,1.25,0,1,0,38.25,61,1.26,1.26,0,0,0,37,59.75"></path><path class="cls-3" d="M61,55.75A2.75,2.75,0,1,1,63.75,53,2.75,2.75,0,0,1,61,55.75m0-4A1.25,1.25,0,1,0,62.25,53,1.25,1.25,0,0,0,61,51.75"></path><path class="cls-3" d="M32,53.75A2.75,2.75,0,1,1,34.75,51,2.75,2.75,0,0,1,32,53.75m0-4A1.25,1.25,0,1,0,33.25,51,1.25,1.25,0,0,0,32,49.75"></path><path class="cls-3" d="M17,40.75A2.75,2.75,0,1,1,19.75,38,2.75,2.75,0,0,1,17,40.75m0-4A1.25,1.25,0,1,0,18.25,38,1.25,1.25,0,0,0,17,36.75"></path><path class="cls-3" d="M20,22.75A2.75,2.75,0,1,1,22.75,20,2.75,2.75,0,0,1,20,22.75m0-4A1.25,1.25,0,1,0,21.25,20,1.25,1.25,0,0,0,20,18.75"></path><path class="cls-3" d="M34,14.75A2.75,2.75,0,1,1,36.75,12,2.75,2.75,0,0,1,34,14.75m0-4A1.25,1.25,0,1,0,35.25,12,1.25,1.25,0,0,0,34,10.75"></path></svg>