<svg xmlns="http://www.w3.org/2000/svg" xmlns:xlink="http://www.w3.org/1999/xlink" id="Layer_1" data-name="Layer 1" viewBox="0 0 92.63 87.25"><defs><style>.cls-1{fill:none;}.cls-2{clip-path:url(#clip-path);}.cls-3{fill:#e4f9f6;}.cls-4{fill:#223f73;}.cls-5{fill:#39cabb;}.cls-6{fill:#fff;}</style><clipPath id="clip-path" transform="translate(0 0)"><rect class="cls-1" width="92.63" height="87.25"></rect></clipPath></defs><title>2</title><g class="cls-2"><path class="cls-3" d="M28,62A14,14,0,1,1,14,48,14,14,0,0,1,28,62" transform="translate(0 0)"></path><path class="cls-3" d="M38.88,12a12,12,0,1,1-12-12,12,12,0,0,1,12,12" transform="translate(0 0)"></path><path class="cls-3" d="M92.63,67.25a20,20,0,1,1-20-20,20,20,0,0,1,20,20" transform="translate(0 0)"></path><path class="cls-4" d="M47.38,43.75h-4a.75.75,0,1,1,0-1.5h4a.75.75,0,0,1,0,1.5" transform="translate(0 0)"></path><path class="cls-4" d="M45.38,45.75a.74.74,0,0,1-.75-.75V41a.75.75,0,0,1,1.5,0v4a.75.75,0,0,1-.75.75" transform="translate(0 0)"></path><path class="cls-4" d="M22.38,15.25H21.13V14a.75.75,0,1,0-1.5,0v1.25H18.38a.75.75,0,1,0,0,1.5h1.25V18a.75.75,0,0,0,1.5,0V16.75h1.25a.75.75,0,0,0,0-1.5Z" transform="translate(0 0)"></path><path class="cls-4" d="M77.38,11.25H76.13V10a.75.75,0,0,0-1.5,0v1.25H73.38a.75.75,0,0,0,0,1.5h1.25V14a.75.75,0,0,0,1.5,0V12.75h1.25a.75.75,0,0,0,0-1.5Z" transform="translate(0 0)"></path><path class="cls-5" d="M38.38,10v9a1,1,0,0,1-1,1h-10V30l7-6h8V10Z" transform="translate(0 0)"></path><path class="cls-4" d="M27.38,30.75a.67.67,0,0,1-.31-.07.73.73,0,0,1-.44-.68V10a.76.76,0,0,1,.75-.75h15a.76.76,0,0,1,.75.75V24a.75.75,0,0,1-.75.75H34.66l-6.79,5.82a.76.76,0,0,1-.49.18m.75-20V28.37l5.76-4.94a.8.8,0,0,1,.49-.18h7.25V10.75Z" transform="translate(0 0)"></path><path class="cls-5" d="M59.38,10v9a1,1,0,0,1-1,1h-10v4h8l7,6V10Z" transform="translate(0 0)"></path><path class="cls-4" d="M63.38,30.75a.74.74,0,0,1-.49-.18L56.1,24.75H48.38a.75.75,0,0,1-.75-.75V10a.76.76,0,0,1,.75-.75h15a.76.76,0,0,1,.75.75V30a.73.73,0,0,1-.44.68.67.67,0,0,1-.31.07m-14.25-7.5h7.25a.8.8,0,0,1,.49.18l5.76,4.94V10.75H49.13Z" transform="translate(0 0)"></path><rect class="cls-5" x="40.88" y="48" width="9" height="26"></rect><path class="cls-6" d="M40.88,48V70h4a1,1,0,0,0,1-1V48Z" transform="translate(0 0)"></path><path class="cls-4" d="M61.38,47.25h-32a.75.75,0,1,0,0,1.5H40.13V74a.74.74,0,0,0,.75.75h9a.75.75,0,0,0,.75-.75V48.75H61.38a.75.75,0,0,0,0-1.5Zm-12.25,26h-7.5V48.75h7.5Z" transform="translate(0 0)"></path><path class="cls-6" d="M18.92,23.08l.23.07-.23-.07" transform="translate(0 0)"></path><path class="cls-6" d="M20.59,24c.1.11.2.22.29.34-.09-.12-.19-.23-.29-.34" transform="translate(0 0)"></path><path class="cls-6" d="M20.1,23.62a3.5,3.5,0,0,1,.3.24,3.5,3.5,0,0,0-.3-.24" transform="translate(0 0)"></path><path class="cls-6" d="M15.46,29.4l-.13-.2.13.2" transform="translate(0 0)"></path><path class="cls-6" d="M15.9,30l-.21-.24.21.24" transform="translate(0 0)"></path><path class="cls-6" d="M19.54,23.29a1.56,1.56,0,0,1,.28.16,1.56,1.56,0,0,0-.28-.16" transform="translate(0 0)"></path><path class="cls-6" d="M15.06,28.63a1.72,1.72,0,0,1-.07-.21,1.72,1.72,0,0,0,.07.21" transform="translate(0 0)"></path><path class="cls-6" d="M14.85,27.93c0-.07,0-.14,0-.21s0,.14,0,.21" transform="translate(0 0)"></path><path class="cls-6" d="M21,24.55a4.64,4.64,0,0,1,.26.44,4.64,4.64,0,0,0-.26-.44" transform="translate(0 0)"></path><path class="cls-6" d="M16.37,30.36c-.09-.06-.17-.14-.26-.21.09.07.17.15.26.21" transform="translate(0 0)"></path><path class="cls-6" d="M21.32,25.11q.12.27.21.54-.09-.27-.21-.54" transform="translate(0 0)"></path><path class="cls-5" d="M15,28.42a3.94,3.94,0,0,1-.14-.49,3.94,3.94,0,0,0,.14.49" transform="translate(0 0)"></path><path class="cls-5" d="M16.81,30.64h0a2.52,2.52,0,0,1-.44-.28,2.52,2.52,0,0,0,.44.28" transform="translate(0 0)"></path><path class="cls-5" d="M16.11,30.15,15.9,30l.21.2" transform="translate(0 0)"></path><path class="cls-5" d="M15.69,29.71a3.55,3.55,0,0,1-.23-.31,3.55,3.55,0,0,0,.23.31" transform="translate(0 0)"></path><path class="cls-5" d="M15.33,29.2a3.72,3.72,0,0,1-.27-.57,3.72,3.72,0,0,0,.27.57" transform="translate(0 0)"></path><path class="cls-5" d="M21.26,25l.06.12L21.26,25" transform="translate(0 0)"></path><path class="cls-5" d="M20.88,24.38l.12.17-.12-.17" transform="translate(0 0)"></path><path class="cls-5" d="M21.53,25.65a.64.64,0,0,0,0,.07.64.64,0,0,1,0-.07" transform="translate(0 0)"></path><path class="cls-5" d="M20.4,23.86l.19.18-.19-.18" transform="translate(0 0)"></path><path class="cls-5" d="M18.25,23a3,3,0,0,1,.67.08,3,3,0,0,0-.67-.08" transform="translate(0 0)"></path><path class="cls-5" d="M14.81,27.72a5.52,5.52,0,0,1-.06-.72,5.52,5.52,0,0,0,.06.72" transform="translate(0 0)"></path><path class="cls-5" d="M19.82,23.45a1.61,1.61,0,0,1,.28.17,1.61,1.61,0,0,0-.28-.17" transform="translate(0 0)"></path><path class="cls-5" d="M19.15,23.15a2.24,2.24,0,0,1,.39.14,2.24,2.24,0,0,0-.39-.14" transform="translate(0 0)"></path><path class="cls-5" d="M20.25,26a3.08,3.08,0,0,1,1.44.37,4.27,4.27,0,0,0-.14-.64s0-.05,0-.08-.13-.36-.21-.54L21.26,25a4.64,4.64,0,0,0-.26-.44l-.12-.17c-.09-.12-.19-.23-.29-.34l-.19-.18-.3-.24a2.61,2.61,0,0,0-.28-.17l-.28-.16a2.24,2.24,0,0,0-.39-.14l-.23-.07a3,3,0,0,0-.67-.08,3.78,3.78,0,0,0-3.5,4,5.52,5.52,0,0,0,.06.72c0,.07,0,.14,0,.21a3.94,3.94,0,0,0,.14.49,1.72,1.72,0,0,0,.07.21,3.72,3.72,0,0,0,.27.57l.13.2a3.55,3.55,0,0,0,.23.31l.21.24.21.2.26.22a3.23,3.23,0,0,0,.44.27,4.48,4.48,0,0,1-.06-.64,3.78,3.78,0,0,1,3.5-4" transform="translate(0 0)"></path><path class="cls-4" d="M18.25,31.75A4.53,4.53,0,0,1,14,27a4.53,4.53,0,0,1,4.25-4.75A4.53,4.53,0,0,1,22.5,27a4.53,4.53,0,0,1-4.25,4.75m0-8A3,3,0,0,0,15.5,27a3,3,0,0,0,2.75,3.25A3,3,0,0,0,21,27a3,3,0,0,0-2.75-3.25" transform="translate(0 0)"></path><path class="cls-6" d="M31.34,37.94l.27-.06-.27.06" transform="translate(0 0)"></path><path class="cls-6" d="M31.75,37.83a1.76,1.76,0,0,0,.39-.19,1.76,1.76,0,0,1-.39.19" transform="translate(0 0)"></path><path class="cls-6" d="M30.43,43A2,2,0,0,0,32,42.76a2,2,0,0,1-1.52.28" transform="translate(0 0)"></path><polygon class="cls-5" points="25.28 41.9 30.43 43.04 25.28 41.9 25.28 41.9"></polygon><path class="cls-5" d="M31.61,37.88l.14-.05-.14.05" transform="translate(0 0)"></path><path class="cls-5" d="M31.34,37.94l-.17,0,.17,0" transform="translate(0 0)"></path><path class="cls-5" d="M36.42,34.85l-4.28,2.79a1.76,1.76,0,0,1-.39.19l-.14.05-.27,0-.17,0h-.38a3.22,3.22,0,0,1-.9.94l-4.61,3L30.43,43A2,2,0,0,0,32,42.76l5.94-3.87a3,3,0,0,0,1.36-2.51,1.83,1.83,0,0,0-2.83-1.53" transform="translate(0 0)"></path><path class="cls-6" d="M71.73,23.11A2.87,2.87,0,0,1,72.5,23a2.87,2.87,0,0,0-.77.11" transform="translate(0 0)"></path><path class="cls-6" d="M71.69,30.88A3.44,3.44,0,0,1,71,30.6a2.94,2.94,0,0,0,.69.28" transform="translate(0 0)"></path><path class="cls-6" d="M72.5,31a3.32,3.32,0,0,1-.77-.1,3.32,3.32,0,0,0,.77.1" transform="translate(0 0)"></path><path class="cls-5" d="M71.73,30.9l0,0,0,0" transform="translate(0 0)"></path><path class="cls-5" d="M71,30.6h0Z" transform="translate(0 0)"></path><path class="cls-5" d="M71.7,23.12h0" transform="translate(0 0)"></path><path class="cls-5" d="M72.5,23a2.87,2.87,0,0,0-.77.11h0a3.79,3.79,0,0,0-.7.28,4.24,4.24,0,0,1,0,7.2h0a3.14,3.14,0,0,0,.68.28l0,0a3.32,3.32,0,0,0,.77.1A3.77,3.77,0,0,0,76,27a3.77,3.77,0,0,0-3.5-4" transform="translate(0 0)"></path><path class="cls-4" d="M72.5,31.75A4.53,4.53,0,0,1,68.25,27a4.28,4.28,0,1,1,8.5,0,4.52,4.52,0,0,1-4.25,4.75m0-8A3,3,0,0,0,69.75,27a2.79,2.79,0,1,0,5.5,0,3,3,0,0,0-2.75-3.25" transform="translate(0 0)"></path><path class="cls-5" d="M74.38,34H71.24l-.61,0a3,3,0,0,1,2.74,3.1L72.5,58h4l.87-20.87a3,3,0,0,0-3-3.13" transform="translate(0 0)"></path><polyline class="cls-5" points="67.87 34.59 61.54 36.85 67.88 34.59 67.87 34.59"></polyline><path class="cls-6" d="M70.38,34a5,5,0,0,0-1.7.3l-.81.29A10,10,0,0,1,70.63,34l-.25,0" transform="translate(0 0)"></path><path class="cls-5" d="M28,59v9.25h3.5V55a1.25,1.25,0,0,0-1.25-1.25H26.8A2,2,0,0,1,27.25,55v2.57A1.76,1.76,0,0,1,28,59" transform="translate(0 0)"></path><polygon class="cls-4" points="27.25 64.46 27.25 59 27.25 68.25 27.25 64.46"></polygon><path class="cls-5" d="M28.87,69.14c.13,0,.26.07.39.12A4,4,0,0,0,28,69h0q.3,0,.6.06l.27.07" transform="translate(0 0)"></path><path class="cls-5" d="M29.85,69.54a3.54,3.54,0,0,0-.48-.23,2,2,0,0,1,.22.09l.26.14" transform="translate(0 0)"></path><path class="cls-4" d="M27.88,69h0" transform="translate(0 0)"></path><path class="cls-5" d="M31,70.57a2.71,2.71,0,0,1,.24.35,2.71,2.71,0,0,0-.24-.35" transform="translate(0 0)"></path><path class="cls-5" d="M31,70.53a3.75,3.75,0,0,0-.81-.78h0a3.85,3.85,0,0,1,.83.78" transform="translate(0 0)"></path><path class="cls-5" d="M31.5,71.33a3,3,0,0,0-.16-.31,3,3,0,0,1,.16.31Z" transform="translate(0 0)"></path><path class="cls-4" d="M31.84,72.48a4.38,4.38,0,0,1,0,.52,4.38,4.38,0,0,0,0-.52" transform="translate(0 0)"></path><path class="cls-4" d="M31.51,71.35v0h0v0" transform="translate(0 0)"></path><path class="cls-4" d="M31.57,71.48c.05.11.08.22.12.33,0-.11-.07-.22-.12-.33" transform="translate(0 0)"></path><path class="cls-4" d="M31.74,72c0,.12.05.23.07.35,0-.12,0-.23-.07-.35" transform="translate(0 0)"></path><path class="cls-5" d="M35.13,73.25V73A3.25,3.25,0,0,0,33,70v3.29Z" transform="translate(0 0)"></path><path class="cls-5" d="M31,70.53l0,0a2.71,2.71,0,0,1,.24.35l.06.1a3,3,0,0,1,.16.31V69.75H30.19a3.75,3.75,0,0,1,.81.78" transform="translate(0 0)"></path><path class="cls-5" d="M33,73.25V70a3.72,3.72,0,0,0-.75-.17v3.46Z" transform="translate(0 0)"></path><path class="cls-5" d="M31.51,71.35l.06.13c.05.11.08.22.12.33a.75.75,0,0,0,0,.16c0,.12.05.23.07.36l0,.15a4.38,4.38,0,0,1,0,.52v.25h.37V69.79a2.33,2.33,0,0,0-.37,0H31.5v1.6" transform="translate(0 0)"></path><path class="cls-4" d="M28,69h0Z" transform="translate(0 0)"></path><path class="cls-4" d="M27.25,69v0Z" transform="translate(0 0)"></path><path class="cls-6" d="M31.28,70.92l.06.1-.06-.1" transform="translate(0 0)"></path><path class="cls-6" d="M31,70.53l0,0,0,0" transform="translate(0 0)"></path><path class="cls-6" d="M31.69,71.81a.75.75,0,0,0,0,.16.75.75,0,0,1,0-.16" transform="translate(0 0)"></path><path class="cls-6" d="M31.81,72.33l0,.15,0-.15" transform="translate(0 0)"></path><path class="cls-6" d="M31.51,71.35l.06.13-.06-.13" transform="translate(0 0)"></path><path class="cls-4" d="M27.25,69v0Z" transform="translate(0 0)"></path><path class="cls-4" d="M38.65,34.11a2.53,2.53,0,0,0-2.64.11L31.73,37a1.25,1.25,0,0,1-1.17.11l-7.15-3a10.75,10.75,0,0,0-4.19-.85H16.38a3.69,3.69,0,0,0-2.71,1.16,3.73,3.73,0,0,0-1,2.75L13.5,58h0V74A.75.75,0,0,0,15,74V64.75H26.5v3.62a.2.2,0,0,1,.08,0,.2.2,0,0,0-.08,0h0a.73.73,0,0,0-.37.63v5a.74.74,0,0,0,.75.75h9a.75.75,0,0,0,.75-.75V73A4.75,4.75,0,0,0,33,68.4V55a2.75,2.75,0,0,0-2.75-2.75H23.17a.25.25,0,0,1-.25-.23L22.08,42l8.18,1.81a2.77,2.77,0,0,0,2.1-.38l5.94-3.87A3.76,3.76,0,0,0,40,36.38,2.56,2.56,0,0,0,38.65,34.11ZM26.5,63.25H15v-4.5H26.25a.25.25,0,0,1,.25.25ZM33,68.4Zm-.75,1.39h0A3.14,3.14,0,0,1,33,70h0a3.25,3.25,0,0,1,2.13,3v.25H28v-3.5h3.88A2.33,2.33,0,0,1,32.25,69.79Zm5.23-31.53-5.94,3.88a1.27,1.27,0,0,1-.95.17l-9.18-2a.76.76,0,0,0-.91.79l.92,11.09a1.75,1.75,0,0,0,1.75,1.6h7.08A1.25,1.25,0,0,1,31.5,55V68.25H28V59a1.76,1.76,0,0,0-.75-1.43h0a1.73,1.73,0,0,0-1-.32H15l-.84-20.16a2.24,2.24,0,0,1,2.25-2.34h2.84a9.23,9.23,0,0,1,3.6.73l7.16,3a2.73,2.73,0,0,0,2.57-.23l4.28-2.8a1.08,1.08,0,0,1,1.1,0,1.06,1.06,0,0,1,.57,1A2.24,2.24,0,0,1,37.48,38.26Z" transform="translate(0 0)"></path><path class="cls-4" d="M29.85,69.54Z" transform="translate(0 0)"></path><path class="cls-4" d="M29.26,69.26h0l.11,0-.11,0" transform="translate(0 0)"></path><rect class="cls-5" x="59.88" y="69" width="4" height="5"></rect><path class="cls-4" d="M77.08,34.41a3.68,3.68,0,0,0-2.7-1.16H71.24a10.61,10.61,0,0,0-3.62.63l-6.33,2.27A1.27,1.27,0,0,1,60.1,36l-4.35-3.38a2.48,2.48,0,0,0-4,2,3.75,3.75,0,0,0,1.45,3l6.51,5.06a1.81,1.81,0,0,0,1.31.35l7.66-1L67.83,52a.25.25,0,0,1-.25.23H60.5A2.76,2.76,0,0,0,57.75,55V68.4A4.75,4.75,0,0,0,54.13,73v1a.74.74,0,0,0,.75.75h9a.75.75,0,0,0,.75-.75V69a.74.74,0,0,0-.38-.63h0V64.75h11.5V74a.75.75,0,0,0,1.5,0V58l.87-20.85A3.66,3.66,0,0,0,77.08,34.41ZM62.75,73.25H55.63V73a3.28,3.28,0,0,1,2.14-3,3.17,3.17,0,0,1,1.11-.21h3.87Zm13-10H64.25V59a.25.25,0,0,1,.08-.18.25.25,0,0,1,.17-.07H75.75Zm0-6H64.5a1.73,1.73,0,0,0-1.23.51A1.78,1.78,0,0,0,62.75,59v5h0v4.25h-3.5V55a1.25,1.25,0,0,1,1.25-1.25h7.08a1.76,1.76,0,0,0,1.75-1.6l.92-11.09a.72.72,0,0,0-.23-.6.74.74,0,0,0-.62-.2l-8.58,1.16a.23.23,0,0,1-.19-.05l-6.51-5.06a2.25,2.25,0,0,1-.87-1.78,1,1,0,0,1,.55-.87,1,1,0,0,1,1,.1l4.35,3.38a2.72,2.72,0,0,0,2.61.42l6.33-2.27a9.27,9.27,0,0,1,3.12-.54h3.14a2.26,2.26,0,0,1,2.25,2.34Z" transform="translate(0 0)"></path></g></svg>