<svg xmlns="http://www.w3.org/2000/svg" xmlns:xlink="http://www.w3.org/1999/xlink" id="Layer_1" data-name="Layer 1" viewBox="0 0 96.17 93.87"><defs><style>.cls-1{fill:none;}.cls-2{clip-path:url(#clip-path);}.cls-3{fill:#f9f1e4;}.cls-4{fill:#feaa01;}.cls-5{fill:#fff;}.cls-6{fill:#21365f;}.cls-7{fill:#00224f;}.cls-8{fill:#bdc3d8;}</style><clipPath id="clip-path" transform="translate(0 0)"><rect class="cls-1" width="96.17" height="93.87"></rect></clipPath></defs><title>3</title><g class="cls-2"><path class="cls-3" d="M68.86,12.89A12.89,12.89,0,1,1,56,0,12.89,12.89,0,0,1,68.86,12.89" transform="translate(0 0)"></path><path class="cls-3" d="M29.1,54.22A14.55,14.55,0,1,1,14.55,39.67,14.56,14.56,0,0,1,29.1,54.22" transform="translate(0 0)"></path><path class="cls-3" d="M96.17,73.53A20.35,20.35,0,1,1,75.83,53.19,20.34,20.34,0,0,1,96.17,73.53" transform="translate(0 0)"></path><path class="cls-4" d="M52.69,52.4l4.21-1.68a6,6,0,0,1-3.39-4l-.75-3H49.05l1,4a10.49,10.49,0,0,0,2.63,4.69" transform="translate(0 0)"></path><path class="cls-5" d="M70.82,55.11a9.16,9.16,0,0,1,.79,1,9.16,9.16,0,0,0-.79-1" transform="translate(0 0)"></path><path class="cls-5" d="M26.93,75c-.45-.15-.9-.32-1.34-.49.44.17.89.34,1.34.49" transform="translate(0 0)"></path><path class="cls-5" d="M71.62,56.08a8,8,0,0,1,.65,1.05,8,8,0,0,0-.65-1.05" transform="translate(0 0)"></path><path class="cls-5" d="M23.76,73.66a16.46,16.46,0,0,1-1.45-.88,16.46,16.46,0,0,0,1.45.88" transform="translate(0 0)"></path><path class="cls-5" d="M25.31,74.41q-.73-.31-1.44-.69.7.38,1.44.69" transform="translate(0 0)"></path><path class="cls-5" d="M69.82,54.22a9.09,9.09,0,0,1,.93.82,9.09,9.09,0,0,0-.93-.82" transform="translate(0 0)"></path><path class="cls-5" d="M28.64,75.45c-.39-.08-.78-.19-1.16-.3.38.11.77.22,1.16.3" transform="translate(0 0)"></path><path class="cls-5" d="M67.51,52.92a9.15,9.15,0,0,1,2.27,1.26,9.15,9.15,0,0,0-2.27-1.26" transform="translate(0 0)"></path><path class="cls-5" d="M72.31,57.2a8.54,8.54,0,0,1,.46,1.08,8.54,8.54,0,0,0-.46-1.08" transform="translate(0 0)"></path><path class="cls-5" d="M73.15,59.78A8.54,8.54,0,0,1,73.27,61a8.54,8.54,0,0,0-.12-1.23" transform="translate(0 0)"></path><path class="cls-5" d="M30.43,75.73c-.3,0-.59-.09-.88-.14.29,0,.58.11.88.14" transform="translate(0 0)"></path><path class="cls-5" d="M72.84,58.47a8.48,8.48,0,0,1,.28,1.13,8.48,8.48,0,0,0-.28-1.13" transform="translate(0 0)"></path><path class="cls-4" d="M32.28,75.83c-.62,0-1.24,0-1.85-.1.61.06,1.23.1,1.85.1" transform="translate(0 0)"></path><path class="cls-4" d="M23.87,73.72l-.11-.06.11.06" transform="translate(0 0)"></path><path class="cls-4" d="M25.59,74.52l-.28-.11.28.11" transform="translate(0 0)"></path><path class="cls-4" d="M29.55,75.6c-.3,0-.61-.09-.91-.15.3.06.61.1.91.15" transform="translate(0 0)"></path><path class="cls-4" d="M27.48,75.15,26.93,75l.55.14" transform="translate(0 0)"></path><path class="cls-4" d="M72.77,58.28c0,.07,0,.13.07.19s0-.12-.07-.19" transform="translate(0 0)"></path><path class="cls-4" d="M72.27,57.13l0,.07,0-.07" transform="translate(0 0)"></path><path class="cls-4" d="M73.12,59.6a1.13,1.13,0,0,1,0,.18,1.13,1.13,0,0,0,0-.18" transform="translate(0 0)"></path><path class="cls-4" d="M22.31,72.78h0" transform="translate(0 0)"></path><path class="cls-4" d="M71.62,56.07h0" transform="translate(0 0)"></path><path class="cls-4" d="M70.75,55a.23.23,0,0,0,.07.07.23.23,0,0,1-.07-.07" transform="translate(0 0)"></path><polyline class="cls-4" points="67.5 52.91 67.5 52.91 67.51 52.92 67.5 52.91"></polyline><path class="cls-4" d="M69.78,54.18s0,0,0,0,0,0,0,0" transform="translate(0 0)"></path><path class="cls-4" d="M67.45,74.33c-.46.21-1,.38-1.43.55.49-.17,1-.34,1.43-.55" transform="translate(0 0)"></path><path class="cls-4" d="M62.15,75.73c-.61.06-1.23.1-1.87.1.64,0,1.26,0,1.87-.1" transform="translate(0 0)"></path><path class="cls-4" d="M65.75,75a12.91,12.91,0,0,1-1.39.37A12.91,12.91,0,0,0,65.75,75" transform="translate(0 0)"></path><path class="cls-4" d="M64,75.44c-.45.1-.92.16-1.39.22.47-.06.94-.12,1.39-.22" transform="translate(0 0)"></path><path class="cls-4" d="M69.07,73.53c-.48.27-1,.51-1.47.73.5-.22,1-.46,1.47-.73" transform="translate(0 0)"></path><path class="cls-4" d="M73.28,70.26a17.88,17.88,0,0,1-4.15,3.23,17.88,17.88,0,0,0,4.15-3.23" transform="translate(0 0)"></path><path class="cls-4" d="M29.55,75.6c-.3,0-.61-.09-.91-.15s-.78-.19-1.16-.3L26.93,75c-.45-.15-.9-.32-1.34-.49l-.28-.11q-.73-.31-1.44-.69l-.11-.06a16.46,16.46,0,0,1-1.45-.88h0c-.48-.33-.95-.68-1.4-1s-.7-.62-1-.94l-.21-.18h0c-.13-.13-.27-.24-.39-.36a18,18,0,0,0,13,5.57c-.62,0-1.24,0-1.85-.1-.3,0-.59-.09-.88-.13" transform="translate(0 0)"></path><polygon class="cls-5" points="19.28 70.25 19.28 70.26 19.28 70.25 19.28 70.25"></polygon><path class="cls-5" d="M19.86,70.79c.34.32.67.64,1,.94-.36-.3-.71-.62-1-.94" transform="translate(0 0)"></path><path class="cls-4" d="M67.6,74.26l-.15.07.15-.07" transform="translate(0 0)"></path><polyline class="cls-4" points="73.28 70.25 73.28 70.25 73.28 70.25 73.28 70.25"></polyline><path class="cls-4" d="M69.13,73.49l-.06,0,.06,0" transform="translate(0 0)"></path><path class="cls-4" d="M62.59,75.66l-.43.07.43-.07" transform="translate(0 0)"></path><path class="cls-4" d="M64.36,75.35c-.13,0-.25.07-.38.09.13,0,.25-.06.38-.09" transform="translate(0 0)"></path><path class="cls-4" d="M66,74.88l-.27.1.27-.1" transform="translate(0 0)"></path><path class="cls-4" d="M20.9,71.73c.45.37.92.72,1.4,1-.48-.33-.95-.69-1.4-1" transform="translate(0 0)"></path><path class="cls-4" d="M19.86,70.79c-.06-.06-.13-.11-.19-.18h0l.21.18" transform="translate(0 0)"></path><path class="cls-6" d="M46.28,47.43c-7.48,0-13.57-7.34-13.57-16.37,0-8.33,5.46-13.92,13.57-13.92s13.57,5.59,13.57,13.92c0,9-6.08,16.37-13.57,16.37m0-28.79c-7.33,0-12.07,4.88-12.07,12.42,0,8.2,5.42,14.87,12.07,14.87s12.07-6.67,12.07-14.87c0-7.54-4.73-12.42-12.07-12.42" transform="translate(0 0)"></path><polygon class="cls-4" points="54.47 51.69 54.47 51.69 56.9 50.72 54.47 51.69"></polygon><path class="cls-4" d="M28.28,72.83a17.6,17.6,0,0,1-6.18-1.12,17,17,0,0,0,10.18,3.37h6.89l-.32-2.25Z" transform="translate(0 0)"></path><path class="cls-7" d="M22.1,71.71a17.19,17.19,0,0,1-2.43-1.1c.06.07.13.12.19.18.33.32.68.64,1,.94s.92.72,1.4,1h0a16.46,16.46,0,0,0,1.45.88l.11.06q.7.38,1.44.69l.28.11c.44.17.89.34,1.34.49l.55.14c.38.11.77.22,1.16.3s.61.1.91.15.58.1.88.13c.61.06,1.23.1,1.85.1h7l-.11-.75H32.28A17,17,0,0,1,22.1,71.71" transform="translate(0 0)"></path><path class="cls-7" d="M22.33,73.69c-.2-.13-.4-.24-.59-.37.19.13.39.24.59.37" transform="translate(0 0)"></path><path class="cls-7" d="M21.58,71.31c-.31-.25-.61-.5-.9-.76.29.26.59.52.9.76" transform="translate(0 0)"></path><path class="cls-7" d="M19.82,71.8c-.33-.3-.67-.61-1-.94.32.33.65.64,1,.94" transform="translate(0 0)"></path><path class="cls-7" d="M21.11,72.85c-.3-.22-.6-.44-.88-.69.28.25.58.47.88.69" transform="translate(0 0)"></path><polyline class="cls-7" points="23.35 74.31 23.35 74.31 23.35 74.31"></polyline><path class="cls-7" d="M73.73,70.86c-.32.33-.65.64-1,.94.34-.3.68-.61,1-.94" transform="translate(0 0)"></path><path class="cls-7" d="M72.34,72.16c-.29.25-.59.47-.89.7.3-.23.6-.45.89-.7" transform="translate(0 0)"></path><path class="cls-7" d="M69.22,74.31h0" transform="translate(0 0)"></path><path class="cls-7" d="M70.82,73.32c-.19.14-.4.25-.6.38l.6-.38" transform="translate(0 0)"></path><path class="cls-7" d="M20,70l.4.37c-.14-.13-.26-.28-.4-.42Z" transform="translate(0 0)"></path><path class="cls-7" d="M73.29,69.13a17.25,17.25,0,0,1-13,6H53.39l-.11.75h7c.64,0,1.26,0,1.87-.1l.44-.07c.47-.06.94-.12,1.39-.22.13,0,.25-.07.38-.09.47-.11.94-.23,1.39-.37l.27-.1c.48-.17,1-.34,1.43-.55l.15-.07c.5-.22,1-.46,1.47-.73l.06,0a17.88,17.88,0,0,0,4.15-3.23h0c0-.31,0-.64,0-1v-.16" transform="translate(0 0)"></path><path class="cls-7" d="M70.22,73.7c-.33.2-.66.42-1,.61.34-.19.67-.4,1-.61" transform="translate(0 0)"></path><path class="cls-7" d="M73.83,70.77l0,0a.86.86,0,0,1-.13.14l.1-.09" transform="translate(0 0)"></path><path class="cls-7" d="M71.44,72.86c-.2.15-.4.32-.62.46.22-.14.42-.31.62-.46" transform="translate(0 0)"></path><path class="cls-7" d="M22.08,71.7l-.5-.39.5.39" transform="translate(0 0)"></path><path class="cls-7" d="M72.74,71.8c-.13.12-.26.25-.4.36.14-.11.27-.24.4-.36" transform="translate(0 0)"></path><path class="cls-7" d="M69.18,74.32a18.58,18.58,0,0,1-8.9,2.26,18.53,18.53,0,0,0,8.9-2.26" transform="translate(0 0)"></path><path class="cls-7" d="M20.23,72.16c-.14-.11-.27-.24-.41-.36.14.12.27.25.41.36" transform="translate(0 0)"></path><path class="cls-7" d="M20.68,70.55l-.25-.23.25.23" transform="translate(0 0)"></path><path class="cls-7" d="M21.75,73.32c-.22-.14-.42-.31-.64-.47.21.16.42.33.64.47" transform="translate(0 0)"></path><path class="cls-7" d="M32.28,76.58a18.71,18.71,0,0,1-8.93-2.27,18.55,18.55,0,0,0,8.93,2.27" transform="translate(0 0)"></path><path class="cls-7" d="M18.74,70.77l.09.09-.12-.14,0,0" transform="translate(0 0)"></path><path class="cls-7" d="M23.35,74.31c-.35-.19-.68-.41-1-.62.34.21.67.43,1,.62" transform="translate(0 0)"></path><path class="cls-7" d="M73.29,69.13h0v0" transform="translate(0 0)"></path><path class="cls-4" d="M72.53,70c0-2.92,0-7.66,0-8.92a8.1,8.1,0,0,0-4.28-7,8.56,8.56,0,0,1,1,3.94c0,.79,0,3,0,5.43a8,8,0,0,1-3.8,6.84,17.79,17.79,0,0,1-9.21,2.55H53.72l-.33,2.25h6.89A17.07,17.07,0,0,0,72.53,70" transform="translate(0 0)"></path><path class="cls-4" d="M50.94,72.83h2.78L56.9,50.72l-2.43,1L51.65,71.3a3.05,3.05,0,0,1-.71,1.53" transform="translate(0 0)"></path><path class="cls-4" d="M50.94,72.83a3,3,0,0,1-2.2,1H39l.29,2h14l.44-3Z" transform="translate(0 0)"></path><path class="cls-5" d="M38.66,43.6c-.33-.31-.66-.63-1-1,.3.34.63.66,1,1" transform="translate(0 0)"></path><path class="cls-5" d="M43.23,46.21c-.31-.09-.63-.19-.93-.31.3.12.62.22.93.31" transform="translate(0 0)"></path><path class="cls-5" d="M39.72,44.45a9.16,9.16,0,0,1-1-.79,9.16,9.16,0,0,0,1,.79" transform="translate(0 0)"></path><path class="cls-5" d="M57.75,24.61c.17.36.33.73.47,1.12-.14-.39-.3-.76-.47-1.12" transform="translate(0 0)"></path><path class="cls-5" d="M42,45.76c-.32-.14-.64-.28-1-.45.31.17.63.31,1,.45" transform="translate(0 0)"></path><path class="cls-5" d="M40.83,45.18c-.33-.19-.66-.4-1-.62.31.22.64.43,1,.62" transform="translate(0 0)"></path><path class="cls-5" d="M58.77,27.7c.07.36.13.75.18,1.14-.05-.39-.11-.78-.18-1.14" transform="translate(0 0)"></path><path class="cls-5" d="M44.56,46.52c-.33-.05-.65-.11-1-.19.32.08.64.14,1,.19" transform="translate(0 0)"></path><path class="cls-5" d="M59,29.33a16.14,16.14,0,0,1,.09,1.73A16.14,16.14,0,0,0,59,29.33" transform="translate(0 0)"></path><path class="cls-5" d="M46.28,46.68a10.24,10.24,0,0,1-1.36-.09,10.24,10.24,0,0,0,1.36.09" transform="translate(0 0)"></path><path class="cls-5" d="M58.36,26.14c.11.34.2.69.29,1.05-.09-.36-.18-.71-.29-1.05" transform="translate(0 0)"></path><path class="cls-4" d="M44.92,46.59l-.36-.07.36.07" transform="translate(0 0)"></path><path class="cls-4" d="M43.59,46.33l-.36-.12.36.12" transform="translate(0 0)"></path><path class="cls-4" d="M41.05,45.31l-.22-.13.22.13" transform="translate(0 0)"></path><path class="cls-4" d="M42.3,45.9l-.3-.14.3.14" transform="translate(0 0)"></path><path class="cls-4" d="M57.66,24.41l.09.2-.09-.2" transform="translate(0 0)"></path><path class="cls-4" d="M58.22,25.73l.14.41-.14-.41" transform="translate(0 0)"></path><path class="cls-4" d="M58.65,27.19l.12.51-.12-.51" transform="translate(0 0)"></path><path class="cls-4" d="M59,28.84c0,.16,0,.32.06.49,0-.17,0-.33-.06-.49" transform="translate(0 0)"></path><path class="cls-4" d="M39.86,44.56l-.14-.11.14.11" transform="translate(0 0)"></path><path class="cls-4" d="M38.74,43.66l-.08-.06Z" transform="translate(0 0)"></path><path class="cls-4" d="M37.7,42.63l0,0Z" transform="translate(0 0)"></path><path class="cls-4" d="M40.39,44.45l-.1.39.54.34.22.13a9.12,9.12,0,0,0,1,.45l.3.14c.3.12.62.22.93.31l.36.12c.32.08.64.14,1,.19l.36.07a12.26,12.26,0,0,0,1.36.09,11,11,0,0,0,6-1.82l-.11-.41Z" transform="translate(0 0)"></path><path class="cls-4" d="M53.48,43.51l.1.38A16.75,16.75,0,0,0,59.1,31.06,16.14,16.14,0,0,0,59,29.33c0-.17,0-.33-.06-.49-.05-.39-.11-.78-.18-1.14l-.12-.5a10.93,10.93,0,0,0-.29-1.06l-.14-.41c-.14-.38-.3-.76-.47-1.12l-.09-.2a11.25,11.25,0,0,0-3.75-4.31,14.09,14.09,0,0,1,2.19,8c0,7-3.76,12.88-8.94,14.89h5.6a.74.74,0,0,1,.72.56" transform="translate(0 0)"></path><path class="cls-4" d="M39.56,43a11.86,11.86,0,0,1-2.8-1.51,14.49,14.49,0,0,0,.91,1.13l0,0c.3.34.63.66,1,1l.08.06c.08.08.17.14.25.21l.09-.36a.74.74,0,0,1,.48-.52" transform="translate(0 0)"></path><path class="cls-4" d="M39.86,44.56l.43.28.1-.39H52.17l.11.41a13.29,13.29,0,0,0,1.3-1l-.1-.38a.74.74,0,0,0-.72-.56h-5.6a10.78,10.78,0,0,1-3.88.73A10.58,10.58,0,0,1,39.56,43a.74.74,0,0,0-.48.52l-.09.36c.24.2.48.4.73.58l.14.11" transform="translate(0 0)"></path><path class="cls-5" d="M45,18c.42,0,.84-.06,1.27-.06-.43,0-.85,0-1.27.06" transform="translate(0 0)"></path><path class="cls-5" d="M58.28,25.9c-.58.2-1.19.38-1.81.54.62-.16,1.23-.34,1.81-.54" transform="translate(0 0)"></path><path class="cls-4" d="M44.86,18l.15,0-.15,0" transform="translate(0 0)"></path><path class="cls-4" d="M56.47,26.44l-.44.12.44-.12" transform="translate(0 0)"></path><path class="cls-4" d="M54.08,27c.67-.13,1.32-.27,2-.43l.44-.12c.62-.16,1.23-.34,1.81-.54-1.83-5.26-6.5-8-12-8-.43,0-.85,0-1.27.06h-.15c-.4,0-.8.09-1.19.16A13.11,13.11,0,0,1,54.08,27" transform="translate(0 0)"></path><path class="cls-5" d="M41.15,30.33a2.39,2.39,0,0,1-.32-.16,2.39,2.39,0,0,0,.32.16" transform="translate(0 0)"></path><path class="cls-5" d="M44.68,25.77a3.48,3.48,0,0,1,.3.5,4.14,4.14,0,0,0-.3-.5" transform="translate(0 0)"></path><path class="cls-5" d="M40.24,29.74a2.05,2.05,0,0,1-.34-.38,2.05,2.05,0,0,0,.34.38" transform="translate(0 0)"></path><path class="cls-5" d="M45,26.32a2.6,2.6,0,0,1,.18.49,2.88,2.88,0,0,0-.18-.49" transform="translate(0 0)"></path><path class="cls-5" d="M45.21,26.92a3.3,3.3,0,0,1,.07.64,3.39,3.39,0,0,0-.07-.64" transform="translate(0 0)"></path><path class="cls-5" d="M40.66,30.08a3.07,3.07,0,0,1-.35-.28,3.07,3.07,0,0,0,.35.28" transform="translate(0 0)"></path><path class="cls-5" d="M41.69,30.5l-.24-.08.24.08" transform="translate(0 0)"></path><path class="cls-8" d="M42.28,30.56a3.8,3.8,0,0,1-.59-.06,3.8,3.8,0,0,0,.59.06" transform="translate(0 0)"></path><path class="cls-8" d="M40.83,30.17l-.17-.09.17.09" transform="translate(0 0)"></path><path class="cls-8" d="M41.45,30.42a1.49,1.49,0,0,1-.3-.09,1.49,1.49,0,0,0,.3.09" transform="translate(0 0)"></path><path class="cls-8" d="M40.31,29.8l-.07-.06.07.06" transform="translate(0 0)"></path><path class="cls-8" d="M45.18,26.81a.45.45,0,0,0,0,.11.45.45,0,0,1,0-.11" transform="translate(0 0)"></path><path class="cls-8" d="M39.9,29.36l0,0,0,0" transform="translate(0 0)"></path><path class="cls-8" d="M45,26.27a.08.08,0,0,1,0,.05.08.08,0,0,0,0-.05" transform="translate(0 0)"></path><polyline class="cls-8" points="44.68 25.77 44.68 25.77 44.68 25.77"></polyline><path class="cls-4" d="M45.21,26.92l0-.1a2.7,2.7,0,0,0-.18-.5.08.08,0,0,0,0-.05,4.14,4.14,0,0,0-.3-.5h0a3.05,3.05,0,0,0-.43-.45,1.75,1.75,0,0,1,0,.24,3,3,0,0,1-5,2.24,3.08,3.08,0,0,0,.58,1.54l0,0a2.05,2.05,0,0,0,.34.38s0,0,.07.07.23.19.35.27l.17.09a2.39,2.39,0,0,0,.32.16,1.49,1.49,0,0,0,.3.09l.24.08a3.8,3.8,0,0,0,.59.06,3,3,0,0,0,3-3,3.3,3.3,0,0,0-.07-.64" transform="translate(0 0)"></path><path class="cls-4" d="M30.63,40.94H29.38V39.69a.75.75,0,0,0-1.5,0v1.25H26.63a.75.75,0,1,0,0,1.5h1.25v1.25a.75.75,0,0,0,1.5,0V42.44h1.25a.75.75,0,0,0,0-1.5" transform="translate(0 0)"></path><path class="cls-4" d="M25.28,25.31h-4a.75.75,0,0,1,0-1.5h4a.75.75,0,0,1,0,1.5" transform="translate(0 0)"></path><path class="cls-4" d="M23.28,27.31a.76.76,0,0,1-.75-.75v-4a.75.75,0,0,1,1.5,0v4a.75.75,0,0,1-.75.75" transform="translate(0 0)"></path><path class="cls-4" d="M62.5,46.58h-4a.75.75,0,0,1,0-1.5h4a.75.75,0,0,1,0,1.5" transform="translate(0 0)"></path><path class="cls-4" d="M60.5,48.58a.74.74,0,0,1-.75-.75v-4a.75.75,0,0,1,1.5,0v4a.75.75,0,0,1-.75.75" transform="translate(0 0)"></path><path class="cls-4" d="M68.48,33.2h-4a.75.75,0,1,1,0-1.5h4a.75.75,0,0,1,0,1.5" transform="translate(0 0)"></path><path class="cls-4" d="M66.48,35.2a.74.74,0,0,1-.75-.75v-4a.75.75,0,0,1,1.5,0v4a.75.75,0,0,1-.75.75" transform="translate(0 0)"></path><path class="cls-4" d="M41,58.13l1,1.37Z" transform="translate(0 0)"></path><path class="cls-4" d="M35.67,50.72l1.89,2.64,5.08,2a.5.5,0,0,1,.18.81L41,58.13l1,1.37L46.29,55Z" transform="translate(0 0)"></path><polygon class="cls-4" points="53.78 51.96 53.78 51.96 56.9 50.72 53.78 51.96"></polygon><path class="cls-4" d="M49.31,58.14l1.3,1.36Z" transform="translate(0 0)"></path><polygon class="cls-4" points="53.78 51.96 49.31 58.14 50.61 59.5 56.9 50.72 53.78 51.96"></polygon><polygon class="cls-4" points="31.78 61.24 31.78 61.24 30.76 59.25 31.78 61.24"></polygon><path class="cls-4" d="M36.79,71l2.49,4.84Z" transform="translate(0 0)"></path><path class="cls-4" d="M34.87,57.65,36.79,71l2.49,4.84L35.67,50.72l-4.91,8.53,1,2L34,57.47a.49.49,0,0,1,.92.18" transform="translate(0 0)"></path><polygon class="cls-5" points="56.9 50.72 61.83 59.25 53.28 75.83 56.9 50.72"></polygon><path class="cls-4" d="M61.83,59.25,56.9,50.72l-.46,3.18,2.82,4.88a1,1,0,0,1,0,1l-5.12,9.91-.89,6.18Z" transform="translate(0 0)"></path><path class="cls-7" d="M74,61a9.66,9.66,0,0,0-8.08-9.29l-7.49-1.3A5,5,0,0,1,57.2,50a5.24,5.24,0,0,1-3-3.52l-.46-1.82a17.44,17.44,0,0,0,6.07-13.63,16.27,16.27,0,0,0-.85-5.3s0-.07,0-.1a12.17,12.17,0,0,0-5.88-6.93l-.19-.09a9.83,9.83,0,0,0-.93-.43l-.24-.1c-.38-.15-.78-.28-1.18-.4H50.5a11.48,11.48,0,0,0-1.16-.27L49,17.36c-.31-.05-.63-.09-1-.12l-.38,0q-.66-.06-1.35-.06c-.45,0-.9,0-1.34.06l-.39,0c-.32,0-.63.07-.94.12l-.39.07c-.38.07-.76.16-1.13.26l-.08,0c-.41.12-.8.25-1.18.4l-.25.11a9.52,9.52,0,0,0-.92.41l-.2.11a12.08,12.08,0,0,0-5.76,6.62v0c0,.09-.08.18-.11.28s0,.06,0,.1a16.22,16.22,0,0,0-.86,5.3,17.47,17.47,0,0,0,6.07,13.63l-.45,1.82a5.26,5.26,0,0,1-3,3.52h0a5.44,5.44,0,0,1-1.23.37l-7.5,1.3A9.65,9.65,0,0,0,18.55,61c0,1.13,0,5,0,8.39h0v.86a.72.72,0,0,0,.18.47l.12.14c.32.33.66.64,1,.94.14.12.27.25.41.36s.59.47.88.69.42.32.64.47.38.24.58.37.67.43,1,.62h0a18.71,18.71,0,0,0,8.93,2.27h28a18.62,18.62,0,0,0,8.91-2.26h0c.34-.19.67-.41,1-.61l.6-.38c.22-.14.42-.31.63-.46s.6-.45.89-.7c.14-.11.27-.24.4-.36.34-.3.67-.61,1-.94a.86.86,0,0,0,.13-.14.71.71,0,0,0,.17-.47c0-.26,0-.56,0-.86h0C74,66.46,74,62.2,74,61ZM57.33,53,61,59.27,54.66,71.52l1-7ZM35.38,25.2c.08-.18.16-.36.25-.53s0-.09.07-.14a11,11,0,0,1,8.36-5.72l.63-.08.43,0c.38,0,.77-.05,1.16-.05s.79,0,1.17.05l.43,0,.63.08a11.22,11.22,0,0,1,7.54,4.4l0,0a10.11,10.11,0,0,1,.73,1.18c.05.09.1.17.14.26s.16.32.23.49.08.18.11.27A39.19,39.19,0,0,1,46,26.93a3.74,3.74,0,0,0-7.2-.65h0a31.28,31.28,0,0,1-3.49-.84Zm9.15,2.36a2.22,2.22,0,0,1-.16.82,2.25,2.25,0,0,1-4.3-.38,3.13,3.13,0,0,1,0-.44,2.22,2.22,0,0,1,.26-1,2.24,2.24,0,0,1,4.13.36A2.41,2.41,0,0,1,44.53,27.56Zm-10.32,3.5a15.28,15.28,0,0,1,.58-4.23,30.84,30.84,0,0,0,3.76.93,1,1,0,0,0,0-.17,1,1,0,0,1,0,.17,3.74,3.74,0,0,0,7.37.66h.36a39.61,39.61,0,0,0,11.5-1.59,15.27,15.27,0,0,1,.57,4.22c0,8.2-5.41,14.87-12.07,14.87S34.21,39.26,34.21,31.06Zm5.57,15.82.32-1.27a11.42,11.42,0,0,0,12.37,0l.32,1.27a6.64,6.64,0,0,0,2.42,3.7l-8.92,3.57-8.94-3.57A6.66,6.66,0,0,0,39.78,46.88Zm15,5.48-4.27,6-2.94-3.09ZM45,55.24,42,58.33l-4.27-6ZM35.24,53,37.9,71.5,31.61,59.27Zm-3,22.11a17.16,17.16,0,0,1-2.7-.22V67a.75.75,0,0,0-1.5,0v7.56a17.22,17.22,0,0,1-6-2.85h0l-.5-.39c-.3-.24-.61-.5-.9-.76l-.25-.23L20,70v0h0c0-3.47,0-7.7,0-8.87a8.15,8.15,0,0,1,6.83-7.84l7.22-1.25-4,6.94a.72.72,0,0,0,0,.71l8,15.49Zm7.65,0L36.85,53.65l4.5,6.29a.76.76,0,0,0,.56.31H42A.74.74,0,0,0,42.5,60l3.79-4,3.78,4a.74.74,0,0,0,.54.23h0a.76.76,0,0,0,.56-.31l4.5-6.28L52.63,75.08ZM72.53,70a17.11,17.11,0,0,1-8,4.59V67A.75.75,0,1,0,63,67v7.86a18.69,18.69,0,0,1-2.71.23H54.52l8-15.48a.74.74,0,0,0,0-.72l-4-6.94,7.22,1.25a8.2,8.2,0,0,1,2.55.88h0a8.1,8.1,0,0,1,4.28,7C72.54,62.29,72.54,67,72.53,70Z" transform="translate(0 0)"></path></g></svg>