<svg xmlns="http://www.w3.org/2000/svg" xmlns:xlink="http://www.w3.org/1999/xlink" id="Layer_1" data-name="Layer 1" viewBox="0 0 599.82 531.76"><defs><style>.cls-1{fill:none;}.cls-2{clip-path:url(#clip-path);}.cls-3{fill:#e2f2f0;}.cls-4{fill:#39cabb;}.cls-5{fill:#fff;}.cls-6{fill:#061a3a;}</style><clipPath id="clip-path" transform="translate(0 0)"><rect class="cls-1" width="599.82" height="531.76"></rect></clipPath></defs><title>4</title><g class="cls-2"><rect class="cls-3" x="105.7" y="165.93" width="494.12" height="365.83" rx="47.06"></rect><path class="cls-3" d="M240,247.55A117.65,117.65,0,1,1,122.35,129.9,117.64,117.64,0,0,1,240,247.55" transform="translate(0 0)"></path><path class="cls-4" d="M431.84,22.72a4.69,4.69,0,0,1-3.33-1.38L415.2,8a4.71,4.71,0,1,1,6.66-6.65l13.31,13.31a4.71,4.71,0,0,1-3.33,8" transform="translate(0 0)"></path><path class="cls-4" d="M418.53,22.72a4.71,4.71,0,0,1-3.33-8L428.51,1.38A4.71,4.71,0,1,1,435.17,8L421.86,21.34a4.7,4.7,0,0,1-3.33,1.38" transform="translate(0 0)"></path><path class="cls-4" d="M545.27,122.44a4.69,4.69,0,0,1-3.33-1.38l-13.31-13.31a4.71,4.71,0,1,1,6.65-6.66l13.31,13.31a4.71,4.71,0,0,1-3.32,8" transform="translate(0 0)"></path><path class="cls-4" d="M532,122.44a4.71,4.71,0,0,1-3.33-8l13.31-13.31a4.71,4.71,0,1,1,6.65,6.66l-13.31,13.31a4.66,4.66,0,0,1-3.32,1.38" transform="translate(0 0)"></path><path class="cls-4" d="M18,388.31a4.71,4.71,0,0,1-3.32-1.37L1.38,373.63A4.71,4.71,0,0,1,8,367l13.31,13.31a4.7,4.7,0,0,1-3.33,8" transform="translate(0 0)"></path><path class="cls-4" d="M4.71,388.31a4.7,4.7,0,0,1-3.33-8L14.69,367a4.71,4.71,0,1,1,6.65,6.66L8,386.94a4.71,4.71,0,0,1-3.32,1.37" transform="translate(0 0)"></path><path class="cls-4" d="M79.41,484.79a4.7,4.7,0,0,1-3.33-1.38L62.78,470.1a4.7,4.7,0,1,1,6.65-6.65l13.31,13.31a4.71,4.71,0,0,1-3.33,8" transform="translate(0 0)"></path><path class="cls-4" d="M66.1,484.79a4.71,4.71,0,0,1-3.32-8l13.3-13.31a4.71,4.71,0,1,1,6.66,6.65L69.43,483.41a4.69,4.69,0,0,1-3.33,1.38" transform="translate(0 0)"></path><path class="cls-5" d="M555.51,280.49c0,130-105.35,235.29-235.3,235.29S84.92,410.44,84.92,280.49,190.26,45.19,320.21,45.19s235.3,105.35,235.3,235.3" transform="translate(0 0)"></path><path class="cls-3" d="M325.74,224.91c-31.85,14-107.85-12.23-124.61,29-5.79,14.21,6.31,29.92,4.57,44.33-2.12,17.92-12.1,25.83-25.46,36.89-27.91,23.15-45.41,32.8-57.89,67.67a28.12,28.12,0,0,1-1.4,2.78,234,234,0,0,1-36-125.13c0-100,62.35-185.37,150.26-219.44a23.41,23.41,0,0,1,.13,3c3.91,55.29,27.3,74.87,69.09,100.32,24,14.59,61.32,43,21.36,60.57" transform="translate(0 0)"></path><path class="cls-4" d="M555.49,280.49a233.84,233.84,0,0,1-31.25,117.22A235,235,0,0,1,352.09,513.62c-2.58-4.43-3.86-7.25-3.86-7.25a36.36,36.36,0,0,1-3.75-19c2.11-31.34,39.8-62.64,32-93.93-10.26-41-56.05-68.52-16.42-110.92,21.32-22.87,44.8-52.09,72.8-66.92,36.75-19.53,58.78-19.43,80.38-50.63,1.46-2.12,3-4.38,4.42-6.83l1.93-2.58a234.22,234.22,0,0,1,35.91,124.94" transform="translate(0 0)"></path><path class="cls-4" d="M302.35,515.07a234.37,234.37,0,0,1-152.84-72.65c.8-.1,1.5-.19,2.12-.24,1.31-.14,2.11-.14,2.11-.14,13.47-13.17,41.6-30.87,61-29.79,28.9,1.65,34.87,33.18,55.54,48.15C292.14,476.25,291,471.92,297,492.25c1.12,3.77,2.44,8.38,4.23,14.12Z" transform="translate(0 0)"></path><path class="cls-3" d="M297,492.25h-.29c-1.17,0-2.3,0-3.48,0-4.8,0-9.6-.33-14.36-.71a233.38,233.38,0,0,1-127.19-49.32c1.31-.14,2.11-.14,2.11-.14,13.47-13.18,41.6-30.87,61-29.79,28.9,1.65,34.87,33.18,55.54,48.15C292.14,476.25,291,471.92,297,492.25" transform="translate(0 0)"></path><path class="cls-3" d="M532,257c0,113.5-80.43,208.33-187.48,230.4,2.11-31.34,39.8-62.64,32-93.93-10.26-41-56.05-68.52-16.42-110.92,21.32-22.87,44.8-52.09,72.8-66.92,36.75-19.53,58.78-19.43,80.38-50.63A233.84,233.84,0,0,1,532,257" transform="translate(0 0)"></path><path class="cls-4" d="M197.65,129.9c0,65.88-47.06,160-75.3,160-22.63,0-57.41-66.59-70.25-122.07-3.2-13.7-5-26.73-5-37.93A75.3,75.3,0,0,1,158.22,63.69h0a75.21,75.21,0,0,1,39.39,66.21" transform="translate(0 0)"></path><path class="cls-5" d="M183.53,117.52c0,61.27-43.76,148.85-70.06,148.85-19.07,0-47.3-50.69-61.37-98.54-3.2-13.7-5-26.73-5-37.93A75.31,75.31,0,0,1,158.22,63.69h0a69.85,69.85,0,0,1,25.27,53.83" transform="translate(0 0)"></path><path class="cls-4" d="M569.67,487.55a9.9,9.9,0,0,1-9.79,9.41H442.7a9.86,9.86,0,0,1-9.74-9.41s-2-57.51,9.74-75.3c5.18-7.9,19.53-14.78,19.53-14.78a50.48,50.48,0,0,1,17.94-4h37.64A61.73,61.73,0,0,1,536,396.77s1.18.47,3.06,1.27v0c5.37,2.35,16.33,7.76,20.8,14.16,12.19,17.46,9.79,75.3,9.79,75.3" transform="translate(0 0)"></path><path class="cls-3" d="M550.5,486a11.55,11.55,0,0,1-11.44,11H463.48a11.55,11.55,0,0,1-11.43-11s-2.82-67.52,11.43-87.9v0c1.89-.8,3.06-1.27,3.06-1.27a61.85,61.85,0,0,1,18.21-3.34h33A61.73,61.73,0,0,1,536,396.77s1.18.47,3.06,1.27v0C553.32,418.47,550.5,486,550.5,486" transform="translate(0 0)"></path><path class="cls-4" d="M531.93,327.55v4.7s-18.82,9.41-47.06-9.41c-4.71,9.41-18.82,9.41-18.82,9.41v-4.7a28.32,28.32,0,0,1,28.23-28.24h9.41a28.33,28.33,0,0,1,28.24,28.24" transform="translate(0 0)"></path><path class="cls-5" d="M531.93,332.25v14.12a28.21,28.21,0,0,1-13.84,24.24,27.91,27.91,0,0,1-14.4,4h-9.41a28.33,28.33,0,0,1-28.23-28.23V332.25s14.11,0,18.82-9.41c28.24,18.82,47.06,9.41,47.06,9.41" transform="translate(0 0)"></path><path class="cls-6" d="M419.32,61.94c-2.7-1.23-5.44-2.41-8.2-3.54a4.7,4.7,0,1,0-3.57,8.7c2.65,1.09,5.27,2.22,7.87,3.41a4.71,4.71,0,0,0,3.9-8.57" transform="translate(0 0)"></path><path class="cls-6" d="M225.88,69.48a4.72,4.72,0,0,0,1.89-.4c1-.45,2.11-.85,3.17-1.29,5,56.2,31.43,76.47,71,100.55,23.94,14.58,37.31,28.42,36.67,38-.36,5.31-5.31,10.11-14.73,14.25-4.63,2-10.85,3.3-19,3.87a4.71,4.71,0,0,0,.32,9.4h.34c9.39-.67,16.42-2.14,22.14-4.66,12.88-5.67,19.73-13.15,20.34-22.24.91-13.78-12.94-29.47-41.18-46.65C267.93,136.63,244,118.3,240,64.17A229,229,0,0,1,320,49.9a4.71,4.71,0,1,0,0-9.41,238.51,238.51,0,0,0-96,20,4.71,4.71,0,0,0,1.88,9" transform="translate(0 0)"></path><path class="cls-6" d="M196.76,252.17a26.5,26.5,0,0,0-1.7,6.59,4.7,4.7,0,0,0,4.09,5.25c.2,0,.4,0,.59,0a4.7,4.7,0,0,0,4.66-4.13,16.29,16.29,0,0,1,1.09-4.21,4.71,4.71,0,0,0-8.73-3.54" transform="translate(0 0)"></path><path class="cls-6" d="M381,392.29c-3.39-13.6-10.32-25.46-17-36.92-14.11-24.13-25.24-43.19-.53-69.66a4.71,4.71,0,1,0-6.88-6.42c-29.49,31.59-14.87,56.62-.73,80.82,6.37,10.91,13,22.17,16,34.46,3.94,15.74-5.28,32-15,49.24-11.8,20.82-24,42.34-12.83,64.66a4.79,4.79,0,0,0,.87,1.2,232.16,232.16,0,0,1-24.9,1.4c-5.59,0-11.12-.26-16.62-.65a4.64,4.64,0,0,0,2.29-5.44c-1.69-5.45-3-9.88-4.05-13.53-5.34-18.27-5.88-19.06-18.94-28.07-2.6-1.79-5.76-4-9.66-6.8-7.11-5.16-12.61-12.83-17.93-20.26-9.71-13.56-19.76-27.59-40.1-28.76-20.82-1.31-49.3,16.67-63.6,30.24a230.94,230.94,0,0,1-25.21-32.28,4.45,4.45,0,0,0,.6-1.09c10.14-28.37,23.82-39.33,44.52-55.94,3.76-3,7.74-6.21,11.95-9.71l1-.79c13.34-11.05,23.87-19.77,26.19-39.15.85-7.2-1.18-14.3-3.15-21.16l-.82-2.89a4.71,4.71,0,0,0-9.07,2.52l.84,3c1.79,6.24,3.48,12.13,2.85,17.45-1.87,15.64-10.21,22.56-22.84,33l-1,.79c-4.18,3.47-8.12,6.63-11.85,9.62C145.61,357,131,368.8,120.1,395.53a229.07,229.07,0,0,1-29-87.36,4.7,4.7,0,0,0-9.34,1.12c14.4,120.4,116.85,211.2,238.29,211.2a240.66,240.66,0,0,0,57.59-7,4.71,4.71,0,0,0-2.25-9.14,225.37,225.37,0,0,1-23.15,4.36,4.62,4.62,0,0,0,.25-4.49c-8.92-17.83,1.54-36.28,12.61-55.8,10.23-18.08,20.83-36.78,16-56.17M158,444.54c13.2-12.47,39.5-28.52,56.5-27.58,15.83.91,23.78,12,33,24.84,5.75,8,11.7,16.34,20,22.4,4,2.88,7.21,5.11,9.85,6.93,10.69,7.37,10.69,7.37,15.24,23,1.09,3.69,2.39,8.16,4.09,13.67a4.73,4.73,0,0,0,1.62,2.3A230.4,230.4,0,0,1,158,444.54" transform="translate(0 0)"></path><path class="cls-6" d="M375.4,258.7c-2,2.23-4.08,4.47-6.09,6.68a4.71,4.71,0,0,0,7,6.33c2-2.2,4-4.43,6-6.65a4.71,4.71,0,1,0-6.94-6.36" transform="translate(0 0)"></path><path class="cls-6" d="M432.87,220.29a4.65,4.65,0,0,0,2.19-.55c10.78-5.72,20.44-9.8,29-13.39,21.42-9,38.55-16.32,55.18-41.88a229.43,229.43,0,0,1,29.74,88.36,4.72,4.72,0,0,0,4.67,4.15,5.09,5.09,0,0,0,.56,0,4.7,4.7,0,0,0,4.12-5.23c-8.95-74.88-53.53-142-119.24-179.65a4.71,4.71,0,0,0-4.67,8.17,231.42,231.42,0,0,1,79.31,75.39s-.06,0-.08.08c-15.82,26.17-30.72,32.46-53.25,42-8.71,3.67-18.57,7.83-29.71,13.74a4.71,4.71,0,0,0,2.22,8.87" transform="translate(0 0)"></path><path class="cls-6" d="M47.49,120.46a4.38,4.38,0,0,0,.88.09A4.7,4.7,0,0,0,53,116.71,70.93,70.93,0,0,1,54.92,109a4.71,4.71,0,0,0-9-2.79A79.83,79.83,0,0,0,43.74,115a4.7,4.7,0,0,0,3.75,5.49" transform="translate(0 0)"></path><path class="cls-6" d="M122.35,294.6c32.14,0,80-98.51,80-164.7A80,80,0,0,0,91.2,56.19a4.71,4.71,0,1,0,3.67,8.67,70.63,70.63,0,0,1,98.07,65c0,68.29-47.85,155.29-70.59,155.29C101.14,285.19,57,200.67,52.14,139a4.7,4.7,0,1,0-9.38.75c4.3,54.16,46.89,154.87,79.59,154.87" transform="translate(0 0)"></path><path class="cls-6" d="M155.29,129.9a32.94,32.94,0,1,0-32.94,32.94,33,33,0,0,0,32.94-32.94m-56.47,0a23.53,23.53,0,1,1,23.53,23.53A23.56,23.56,0,0,1,98.82,129.9" transform="translate(0 0)"></path><path class="cls-6" d="M563.76,409.56c-6.66-9.54-24.09-16.41-26.06-17.16a65.38,65.38,0,0,0-19.88-3.68H480.17a54,54,0,0,0-19.93,4.52c-1.59.75-15.71,7.66-21.47,16.43-12.37,18.84-10.59,75.63-10.51,78a14.57,14.57,0,0,0,14.44,14h37.12a4.71,4.71,0,0,0,0-9.41H442.7a5.15,5.15,0,0,1-5-4.86c-.53-15.58.05-59,9-72.55,3.66-5.58,14-11.36,17.65-13.11a45.51,45.51,0,0,1,15.88-3.6h37.65a56,56,0,0,1,16.52,3.06c4.59,1.76,17.44,7.65,21.7,13.76,9.24,13.25,9.6,56.76,9,72.41a5.22,5.22,0,0,1-5.1,4.89H505.7a4.71,4.71,0,1,0,0,9.41h54.2a14.66,14.66,0,0,0,14.5-13.91c.25-6.08,2.09-59.94-10.64-78.19" transform="translate(0 0)"></path><path class="cls-6" d="M494.29,294.6a33,33,0,0,0-32.94,32.95v18.82a33,33,0,0,0,16.12,28.27,32.6,32.6,0,0,0,16.82,4.67h9.41a33,33,0,0,0,32.94-32.94V327.55A33,33,0,0,0,503.7,294.6Zm21.39,72a23,23,0,0,1-12,3.33h-9.41a22.92,22.92,0,0,1-12-3.35,23.51,23.51,0,0,1-11.53-20.18v-9.84c4.38-.71,10.88-2.54,15.36-7.33,13.3,8,24.58,10.11,32.84,10.11a43.18,43.18,0,0,0,8.27-.77v7.83a23.56,23.56,0,0,1-11.55,20.2m11.55-39v1.37c-5.62,1.52-19.92,3.22-39.74-10a4.71,4.71,0,0,0-6.82,1.81c-1.87,3.76-6.33,5.41-9.84,6.17A23.51,23.51,0,0,1,494.29,304h9.41a23.56,23.56,0,0,1,23.53,23.53" transform="translate(0 0)"></path></g></svg>