<svg xmlns="http://www.w3.org/2000/svg" xmlns:xlink="http://www.w3.org/1999/xlink" id="Layer_1" data-name="Layer 1" viewBox="0 0 675.28 627.43"><defs><style>.cls-1{fill:none;}.cls-2{clip-path:url(#clip-path);}.cls-3{fill:#f7eded;}.cls-4{fill:#fe5948;}.cls-5{fill:#fff;}.cls-6{fill:#061a3a;}</style><clipPath id="clip-path" transform="translate(0 0)"><rect class="cls-1" width="675.28" height="627.43"></rect></clipPath></defs><title>5</title><g class="cls-2"><rect class="cls-3" y="209.34" width="500.09" height="382.79" rx="47.06"></rect><path class="cls-3" d="M675.28,236.84A117.65,117.65,0,1,1,557.63,119.19,117.66,117.66,0,0,1,675.28,236.84" transform="translate(0 0)"></path><path class="cls-4" d="M16.06,71a4.71,4.71,0,0,1-3.33-8L26,49.62a4.7,4.7,0,0,1,6.65,6.65L19.38,69.58A4.68,4.68,0,0,1,16.06,71" transform="translate(0 0)"></path><path class="cls-4" d="M29.37,71A4.69,4.69,0,0,1,26,69.58L12.73,56.27a4.7,4.7,0,1,1,6.65-6.65L32.69,62.93a4.71,4.71,0,0,1-3.32,8" transform="translate(0 0)"></path><path class="cls-4" d="M128.15,22.72a4.71,4.71,0,0,1-3.32-8l13.3-13.31A4.71,4.71,0,0,1,144.79,8L131.48,21.34a4.69,4.69,0,0,1-3.33,1.38" transform="translate(0 0)"></path><path class="cls-4" d="M141.46,22.72a4.7,4.7,0,0,1-3.33-1.38L124.83,8a4.7,4.7,0,0,1,6.65-6.65l13.31,13.31a4.71,4.71,0,0,1-3.33,8" transform="translate(0 0)"></path><path class="cls-4" d="M639.18,532.91a4.71,4.71,0,0,1-3.33-8l13.31-13.31a4.71,4.71,0,1,1,6.66,6.66l-13.31,13.31a4.69,4.69,0,0,1-3.33,1.38" transform="translate(0 0)"></path><path class="cls-4" d="M652.49,532.91a4.7,4.7,0,0,1-3.33-1.38l-13.31-13.31a4.71,4.71,0,0,1,6.66-6.66l13.31,13.31a4.71,4.71,0,0,1-3.33,8" transform="translate(0 0)"></path><path class="cls-4" d="M566.24,627.43a4.71,4.71,0,0,1-3.33-8l13.31-13.31a4.71,4.71,0,0,1,6.66,6.66l-13.31,13.31a4.7,4.7,0,0,1-3.33,1.38" transform="translate(0 0)"></path><path class="cls-4" d="M579.55,627.43a4.7,4.7,0,0,1-3.33-1.38l-13.31-13.31a4.71,4.71,0,0,1,6.66-6.66l13.31,13.31a4.71,4.71,0,0,1-3.33,8" transform="translate(0 0)"></path><path class="cls-4" d="M582.31,121.54V563.9H45.84V121.54A37.75,37.75,0,0,1,83.48,83.9H544.66a37.76,37.76,0,0,1,37.65,37.64" transform="translate(0 0)"></path><rect class="cls-5" x="45.84" y="159.19" width="512.94" height="381.18"></rect><path class="cls-4" d="M582.31,121.54v37.65H45.84V121.54A37.75,37.75,0,0,1,83.48,83.9H544.66a37.76,37.76,0,0,1,37.65,37.64" transform="translate(0 0)"></path><path class="cls-3" d="M558.78,121.54v37.65H45.84V121.54A37.75,37.75,0,0,1,83.48,83.9H521.13a37.76,37.76,0,0,1,37.65,37.64" transform="translate(0 0)"></path><rect class="cls-3" x="309.37" y="215.66" width="301.18" height="216.47"></rect><path class="cls-4" d="M90.41,479.19a9.9,9.9,0,0,0,9.79,9.41H217.38a9.83,9.83,0,0,0,9.73-9.41s2-57.51-9.73-75.29c-5.18-7.91-19.53-14.78-19.53-14.78a50.32,50.32,0,0,0-17.93-4.05H142.27a61.85,61.85,0,0,0-18.21,3.34s-1.17.47-3.06,1.27v.05c-5.37,2.36-16.33,7.77-20.8,14.17-12.18,17.45-9.79,75.29-9.79,75.29" transform="translate(0 0)"></path><path class="cls-3" d="M109.57,477.64a11.54,11.54,0,0,0,11.43,11h96.38a9.84,9.84,0,0,0,9.73-9.41s2-57.51-9.73-75.29c-5.18-7.91-19.53-14.78-19.53-14.78a50.32,50.32,0,0,0-17.93-4.05H142.27a61.85,61.85,0,0,0-18.21,3.34s-1.17.47-3.06,1.27v.05c-14.25,20.38-11.43,87.91-11.43,87.91" transform="translate(0 0)"></path><path class="cls-4" d="M128.15,319.19v4.7s18.83,9.42,47.06-9.41c4.71,9.41,18.83,9.41,18.83,9.41v-4.7A28.33,28.33,0,0,0,165.8,291h-9.41a28.33,28.33,0,0,0-28.24,28.24" transform="translate(0 0)"></path><path class="cls-5" d="M128.15,323.89V338A28.19,28.19,0,0,0,142,362.25a27.82,27.82,0,0,0,14.4,4h9.41a27.79,27.79,0,0,0,14.4-4A28.21,28.21,0,0,0,194,338V323.89s-14.12,0-18.83-9.41c-28.23,18.83-47.06,9.41-47.06,9.41" transform="translate(0 0)"></path><path class="cls-5" d="M212.86,399.19l42.92,15.61a13.13,13.13,0,0,0,14.31-4.45l18.06-25.28L307,399.19l-23.73,43.5a15.6,15.6,0,0,1-13.88,7.41L227,446.25Z" transform="translate(0 0)"></path><path class="cls-5" d="M288.15,385.07l2.36-7.06c1.29-3.88,6.5-7.89,11.58-8.9l28.6-5.72c5.07-1,8.2,2.26,6.95,7.28l-.14.56c-1.26,5-6.4,10.17-11.42,11.42l-9.69,2.42L307,399.19Z" transform="translate(0 0)"></path><path class="cls-6" d="M125.74,392.83a56.35,56.35,0,0,1,16.52-3.05h37.65a45.55,45.55,0,0,1,15.88,3.59,70.23,70.23,0,0,1,13.27,8.46,4.39,4.39,0,0,0,1.5,1.37,20.35,20.35,0,0,1,2.89,3.28c8.9,13.58,9.48,57,9,72.55a5.15,5.15,0,0,1-5,4.87H197.62a4.71,4.71,0,1,0,0,9.41h19.76a14.58,14.58,0,0,0,14.43-13.95c0-1.09.42-13.24-.3-28l37.41,3.4a12.82,12.82,0,0,0,1.39.06c6.64,0,13.92-4.15,17.06-9.9l23.72-43.51a4.69,4.69,0,0,0-1.3-6l-16.11-12.08L295,379.5c.69-2.06,4.36-5,8.05-5.78L331.6,368a2.69,2.69,0,0,1,1.51,0,2.51,2.51,0,0,1-.05,1.54l-.14.54a12.68,12.68,0,0,1-8,8l-9.7,2.42a4.71,4.71,0,1,0,2.28,9.13l9.7-2.42c6.65-1.66,13.17-8.18,14.84-14.86l.14-.55c1-4,.16-7.74-2.27-10.29s-6.13-3.55-10.18-2.74l-28.6,5.72c-6.78,1.35-13.28,6.53-15.12,12l-2.13,6.39-17.65,24.7a8.5,8.5,0,0,1-8.87,2.76L215.91,395.3a77.33,77.33,0,0,0-16.07-10.42,54.24,54.24,0,0,0-19.93-4.51H142.26A65.37,65.37,0,0,0,122.38,384c-2,.75-19.4,7.62-26.06,17.16-12.73,18.26-10.9,72.11-10.65,78.2a14.68,14.68,0,0,0,14.51,13.91h55.06a4.71,4.71,0,0,0,0-9.41H100.18A5.25,5.25,0,0,1,95.07,479c-.63-15.65-.27-59.16,9-72.42,4.25-6.08,17.11-12,21.7-13.76m148.17,20.26,15.26-21.36,11.71,8.78-21.77,39.93c-1.58,2.91-6,5.33-9.33,5l-38.89-3.54c-1-11.93-2.77-24.32-6.09-33.34l29.36,10.68a17.82,17.82,0,0,0,19.75-6.13" transform="translate(0 0)"></path><path class="cls-6" d="M156.38,286.25a33,33,0,0,0-32.94,32.94V338A33.06,33.06,0,0,0,156.38,371h9.41A33.06,33.06,0,0,0,198.73,338V319.19a33,33,0,0,0-32.94-32.94Zm21.39,72a23,23,0,0,1-12,3.32h-9.41a22.91,22.91,0,0,1-12-3.34A23.52,23.52,0,0,1,132.85,338v-7.84a43,43,0,0,0,8.26.78c8.27,0,19.54-2.15,32.84-10.12,4.5,4.8,11,6.63,15.37,7.33V338a23.58,23.58,0,0,1-11.55,20.2m11.49-39.65c-3.51-.75-7.95-2.4-9.85-6.19a4.67,4.67,0,0,0-3-2.44,4.73,4.73,0,0,0-3.82.63c-19.85,13.23-34.15,11.51-39.74,10v-1.38a23.56,23.56,0,0,1,23.53-23.53h9.41a23.53,23.53,0,0,1,23.47,22.91" transform="translate(0 0)"></path><path class="cls-6" d="M582.31,465.07a4.71,4.71,0,0,0-4.71,4.71v89.41H213.68a4.71,4.71,0,1,0,0,9.41H582.31a4.69,4.69,0,0,0,4.7-4.7V469.78a4.7,4.7,0,0,0-4.7-4.71" transform="translate(0 0)"></path><path class="cls-6" d="M119.5,559.19h-69V248.6a4.71,4.71,0,0,0-9.41,0V563.9a4.7,4.7,0,0,0,4.71,4.7H119.5a4.71,4.71,0,1,0,0-9.41" transform="translate(0 0)"></path><path class="cls-6" d="M45.84,174.49a4.7,4.7,0,0,0,4.7-4.71V163.9H577.6V178a4.71,4.71,0,0,0,9.41,0V121.55a42.4,42.4,0,0,0-42.35-42.36H422.35a4.71,4.71,0,0,0,0,9.41H544.66a33,33,0,0,1,32.94,33v32.94H50.54V121.55A33,33,0,0,1,83.48,88.6h244.7a4.71,4.71,0,1,0,0-9.41H83.48a42.41,42.41,0,0,0-42.35,42.36v48.23a4.71,4.71,0,0,0,4.71,4.71" transform="translate(0 0)"></path><path class="cls-6" d="M92.9,116.84a4.71,4.71,0,1,0,0,9.41H281.13a4.71,4.71,0,1,0,0-9.41Z" transform="translate(0 0)"></path><path class="cls-6" d="M544.66,126.25a4.71,4.71,0,1,0,0-9.41h-9.41a4.71,4.71,0,1,0,0,9.41Z" transform="translate(0 0)"></path><path class="cls-6" d="M497.6,126.25a4.71,4.71,0,1,0,0-9.41h-9.41a4.71,4.71,0,1,0,0,9.41Z" transform="translate(0 0)"></path><path class="cls-6" d="M415.25,215.66a4.71,4.71,0,0,0-4.71-4.7H309.37a4.71,4.71,0,0,0-4.71,4.7V343.51a4.71,4.71,0,0,0,9.41,0V220.37h96.47a4.71,4.71,0,0,0,4.71-4.71" transform="translate(0 0)"></path><path class="cls-6" d="M610.54,211H504.72a4.71,4.71,0,1,0,0,9.41H605.84v92.94a4.71,4.71,0,1,0,9.41,0V215.66a4.71,4.71,0,0,0-4.71-4.7" transform="translate(0 0)"></path><path class="cls-6" d="M610.54,355.69a4.7,4.7,0,0,0-4.7,4.71v67H335.26a4.71,4.71,0,1,0,0,9.41h95.49l-13.07,69.72a4.71,4.71,0,0,0,9.25,1.74l13.4-71.46h39.25L493,508.3a4.69,4.69,0,0,0,4.61,3.83,4.43,4.43,0,0,0,.88-.08,4.7,4.7,0,0,0,3.75-5.49l-13.07-69.72H610.54a4.71,4.71,0,0,0,4.71-4.71V360.4a4.71,4.71,0,0,0-4.71-4.71" transform="translate(0 0)"></path><path class="cls-6" d="M402.11,259.39a4.71,4.71,0,0,0-6.65,0L380,274.89l-6.08-6.08a4.71,4.71,0,0,0-6.66,6.65l9.42,9.41a4.7,4.7,0,0,0,6.65,0l18.82-18.82a4.71,4.71,0,0,0,0-6.66" transform="translate(0 0)"></path><path class="cls-6" d="M572.9,267.42H422.31a4.71,4.71,0,1,0,0,9.41H572.9a4.71,4.71,0,0,0,0-9.41" transform="translate(0 0)"></path><path class="cls-6" d="M402.11,306.45a4.7,4.7,0,0,0-6.65,0L380,322l-6.08-6.09a4.71,4.71,0,0,0-6.66,6.66l9.42,9.41a4.7,4.7,0,0,0,6.65,0l18.82-18.82a4.71,4.71,0,0,0,0-6.66" transform="translate(0 0)"></path><path class="cls-6" d="M572.9,314.48H422.31a4.71,4.71,0,1,0,0,9.41H572.9a4.71,4.71,0,0,0,0-9.41" transform="translate(0 0)"></path><path class="cls-6" d="M395.46,353.51,380,369l-6.08-6.09a4.71,4.71,0,0,0-6.66,6.66l9.42,9.41a4.7,4.7,0,0,0,6.65,0l18.82-18.82a4.71,4.71,0,0,0-6.65-6.66" transform="translate(0 0)"></path><path class="cls-6" d="M572.9,361.54H422.31a4.71,4.71,0,1,0,0,9.41H572.9a4.71,4.71,0,0,0,0-9.41" transform="translate(0 0)"></path><path class="cls-6" d="M348.58,88.6h3.14a4.71,4.71,0,1,0,0-9.41h-3.14a4.71,4.71,0,1,0,0,9.41" transform="translate(0 0)"></path><path class="cls-6" d="M198,559.19h-4a4.71,4.71,0,1,0,0,9.41h4a4.71,4.71,0,0,0,0-9.41" transform="translate(0 0)"></path><path class="cls-6" d="M434.07,211h-5.88a4.71,4.71,0,1,0,0,9.41h5.88a4.71,4.71,0,1,0,0-9.41" transform="translate(0 0)"></path><path class="cls-6" d="M45.84,239.19a4.7,4.7,0,0,0,4.7-4.7V228.6a4.71,4.71,0,0,0-9.41,0v5.89a4.7,4.7,0,0,0,4.71,4.7" transform="translate(0 0)"></path></g></svg>