<svg xmlns="http://www.w3.org/2000/svg" xmlns:xlink="http://www.w3.org/1999/xlink" id="Layer_1" data-name="Layer 1" viewBox="0 0 649.6 605.47"><defs><style>.cls-1{fill:none;}.cls-2{clip-path:url(#clip-path);}.cls-3{fill:#e4f3f4;}.cls-4{fill:#01b4d9;}.cls-5{fill:#fff;}.cls-6{fill:#061a3a;}</style><clipPath id="clip-path" transform="translate(0 0)"><rect class="cls-1" width="649.6" height="605.47"></rect></clipPath></defs><title>6</title><g class="cls-2"><rect class="cls-3" x="49.59" y="153.05" width="600.01" height="404.77" rx="47.06"></rect><path class="cls-3" d="M235.86,175.58A117.65,117.65,0,1,1,118.22,57.93,117.64,117.64,0,0,1,235.86,175.58" transform="translate(0 0)"></path><path class="cls-4" d="M386.06,22.72a4.69,4.69,0,0,1-3.33-1.38L369.42,8a4.7,4.7,0,0,1,6.65-6.65l13.31,13.31a4.71,4.71,0,0,1-3.32,8" transform="translate(0 0)"></path><path class="cls-4" d="M372.75,22.72a4.71,4.71,0,0,1-3.33-8L382.73,1.38A4.7,4.7,0,0,1,389.38,8L376.07,21.34a4.66,4.66,0,0,1-3.32,1.38" transform="translate(0 0)"></path><path class="cls-4" d="M559.59,73.89a4.69,4.69,0,0,1-3.33-1.38L543,59.2a4.7,4.7,0,0,1,6.65-6.65l13.31,13.31a4.71,4.71,0,0,1-3.32,8" transform="translate(0 0)"></path><path class="cls-4" d="M546.28,73.89a4.71,4.71,0,0,1-3.33-8l13.31-13.31a4.7,4.7,0,1,1,6.65,6.65L549.6,72.51a4.66,4.66,0,0,1-3.32,1.38" transform="translate(0 0)"></path><path class="cls-4" d="M4.71,577.23a4.71,4.71,0,0,1-3.33-8l13.31-13.31a4.71,4.71,0,0,1,6.65,6.66L8,575.85a4.68,4.68,0,0,1-3.32,1.38" transform="translate(0 0)"></path><path class="cls-4" d="M18,577.23a4.68,4.68,0,0,1-3.32-1.38L1.38,562.55A4.71,4.71,0,0,1,8,555.89L21.34,569.2a4.71,4.71,0,0,1-3.33,8" transform="translate(0 0)"></path><path class="cls-4" d="M136.47,605.47a4.71,4.71,0,0,1-3.33-8l13.31-13.31a4.71,4.71,0,0,1,6.66,6.66l-13.31,13.3a4.7,4.7,0,0,1-3.33,1.38" transform="translate(0 0)"></path><path class="cls-4" d="M149.78,605.47a4.7,4.7,0,0,1-3.33-1.38l-13.31-13.3a4.71,4.71,0,0,1,6.66-6.66l13.31,13.31a4.71,4.71,0,0,1-3.33,8" transform="translate(0 0)"></path><path class="cls-4" d="M600,201.54V455.66a37.76,37.76,0,0,1-37.65,37.65H383.52A37.76,37.76,0,0,0,345.87,531H289.4a37.76,37.76,0,0,0-37.64-37.65H72.93a37.79,37.79,0,0,1-34.3-22.16,37.14,37.14,0,0,1-3.34-15.49V201.54A37.75,37.75,0,0,1,72.93,163.9H562.34a37.11,37.11,0,0,1,15.49,3.34A37.8,37.8,0,0,1,600,201.54" transform="translate(0 0)"></path><path class="cls-3" d="M581.17,182.72V436.84a37.76,37.76,0,0,1-37.65,37.65h-160c-20.71,0-47.06,16.94-47.06,37.64H298.81c0-20.7-26.35-37.64-47.05-37.64H54.11a37.07,37.07,0,0,1-15.48-3.35,37.06,37.06,0,0,1-3.34-15.48V201.54A37.75,37.75,0,0,1,72.93,163.9H562.34a37.11,37.11,0,0,1,15.49,3.34,37.25,37.25,0,0,1,3.34,15.48" transform="translate(0 0)"></path><path class="cls-5" d="M562.34,126.25V455.66H355.28a37.76,37.76,0,0,0-37.64,37.65A37.76,37.76,0,0,0,280,455.66H72.93V126.25H562.34Z" transform="translate(0 0)"></path><path class="cls-4" d="M289.4,126.25V229.78l47.06-37.65H477.64a37.75,37.75,0,0,0,37.64-37.64V126.25A37.76,37.76,0,0,0,477.64,88.6H327.05a37.81,37.81,0,0,0-37.65,37.65" transform="translate(0 0)"></path><path class="cls-5" d="M303.52,96.94v99.9l32.94-22.78H487.05a28.26,28.26,0,0,0,28.24-28.23V126.25A37.76,37.76,0,0,0,477.64,88.6H327.05a37.21,37.21,0,0,0-23.53,8.34" transform="translate(0 0)"></path><rect class="cls-3" x="289.4" y="239.19" width="249.41" height="169.41"></rect><path class="cls-4" d="M120.18,394.49A9.91,9.91,0,0,0,130,403.9H247.15a9.85,9.85,0,0,0,9.74-9.41s2-57.51-9.74-75.3c-5.17-7.91-19.53-14.77-19.53-14.77a50.06,50.06,0,0,0-17.93-4.05H172a61.53,61.53,0,0,0-18.21,3.34s-1.17.47-3.06,1.27v0c-5.37,2.35-16.33,7.76-20.8,14.16-12.19,17.46-9.79,75.3-9.79,75.3" transform="translate(0 0)"></path><path class="cls-3" d="M139.34,392.93a11.55,11.55,0,0,0,11.43,11h96.38a9.85,9.85,0,0,0,9.74-9.41s2-57.51-9.74-75.3c-5.17-7.91-19.53-14.77-19.53-14.77a50.06,50.06,0,0,0-17.93-4.05H172a61.53,61.53,0,0,0-18.21,3.34s-1.17.47-3.06,1.27v0c-14.25,20.37-11.43,87.9-11.43,87.9" transform="translate(0 0)"></path><path class="cls-4" d="M157.92,234.49v4.7s18.83,9.41,47.06-9.41c4.71,9.41,18.82,9.41,18.82,9.41v-4.7a28.32,28.32,0,0,0-28.23-28.24h-9.41a28.33,28.33,0,0,0-28.24,28.24" transform="translate(0 0)"></path><path class="cls-5" d="M157.92,239.19v14.12a28.18,28.18,0,0,0,13.84,24.23,27.73,27.73,0,0,0,14.4,4h9.41a27.7,27.7,0,0,0,14.4-4,28.17,28.17,0,0,0,13.83-24.23V239.19s-14.11,0-18.82-9.41c-28.23,18.82-47.06,9.41-47.06,9.41" transform="translate(0 0)"></path><path class="cls-5" d="M242.63,314.49l42.92,15.6a13.12,13.12,0,0,0,14.31-4.44l18.06-25.28,18.83,14.12L313,358a15.6,15.6,0,0,1-13.88,7.41l-42.39-3.86Z" transform="translate(0 0)"></path><path class="cls-5" d="M317.92,300.37l2.36-7.06c1.29-3.88,6.5-7.89,11.58-8.91l28.6-5.71c5.07-1,8.2,2.26,7,7.28l-.14.56c-1.26,5-6.4,10.16-11.42,11.42l-9.69,2.42-9.41,14.12Z" transform="translate(0 0)"></path><path class="cls-6" d="M567.05,159.47V126.25a4.71,4.71,0,0,0-4.71-4.71h-9.41a4.71,4.71,0,0,0,0,9.42h4.71V258a4.71,4.71,0,0,0,9.41,0V169a33,33,0,0,1,28.23,32.56V455.66a33,33,0,0,1-32.94,32.94H383.52a42.42,42.42,0,0,0-42.09,37.65H293.85a42.42,42.42,0,0,0-42.09-37.65H72.93A33,33,0,0,1,40,455.66V314.49a4.71,4.71,0,1,0-9.41,0V455.66A42.41,42.41,0,0,0,72.93,498H251.76A33,33,0,0,1,284.7,531a4.7,4.7,0,0,0,4.7,4.7h56.47a4.71,4.71,0,0,0,4.71-4.7A33,33,0,0,1,383.52,498H562.34a42.41,42.41,0,0,0,42.36-42.36V201.54a42.4,42.4,0,0,0-37.65-42.07" transform="translate(0 0)"></path><path class="cls-6" d="M35.28,225.07a4.7,4.7,0,0,0,4.71-4.7V201.54A33,33,0,0,1,68.23,169V455.66a4.7,4.7,0,0,0,4.7,4.71h61.18a4.71,4.71,0,0,0,0-9.41H77.64V131H251.76a4.71,4.71,0,0,0,0-9.42H72.93a4.7,4.7,0,0,0-4.7,4.71v33.22a42.4,42.4,0,0,0-37.65,42.07v18.83a4.7,4.7,0,0,0,4.7,4.7" transform="translate(0 0)"></path><path class="cls-6" d="M557.64,451H355.28a42.39,42.39,0,0,0-37.64,23A42.4,42.4,0,0,0,280,451H223.52a4.71,4.71,0,1,0,0,9.41H280a33,33,0,0,1,32.94,32.94,4.71,4.71,0,1,0,9.41,0,33,33,0,0,1,32.94-32.94H562.34a4.71,4.71,0,0,0,4.71-4.71V356.84a4.71,4.71,0,1,0-9.41,0Z" transform="translate(0 0)"></path><path class="cls-6" d="M287.36,234a4.79,4.79,0,0,0,2,.47,4.69,4.69,0,0,0,2.94-1l45.78-36.61H477.64A42.4,42.4,0,0,0,520,154.49V126.25A42.4,42.4,0,0,0,477.64,83.9H454.11a4.71,4.71,0,1,0,0,9.41h23.53a33,33,0,0,1,32.94,32.94v28.24a33,33,0,0,1-32.94,32.94H336.46a4.72,4.72,0,0,0-2.94,1L294.11,220V126.25a33,33,0,0,1,32.94-32.94h28.24a4.71,4.71,0,0,0,0-9.41H327.05a42.4,42.4,0,0,0-42.35,42.35V229.78a4.71,4.71,0,0,0,2.66,4.24" transform="translate(0 0)"></path><path class="cls-6" d="M157.24,308.13a56,56,0,0,1,16.52-3.06h37.65a45.39,45.39,0,0,1,15.89,3.6,69.7,69.7,0,0,1,13.26,8.46,4.74,4.74,0,0,0,1.51,1.37,19.6,19.6,0,0,1,2.87,3.27c8.92,13.58,9.5,57,9,72.56a5.16,5.16,0,0,1-5,4.86h-6.54a4.71,4.71,0,0,0,0,9.41h6.54a14.58,14.58,0,0,0,14.44-14c0-1.08.41-13.23-.31-28l37.42,3.4q.69.06,1.38.06c6.65,0,13.93-4.15,17.07-9.91l23.72-43.5a4.71,4.71,0,0,0-1.31-6l-16.11-12.08,1.28-3.84c.69-2.07,4.35-5,8-5.78l28.61-5.72a2.78,2.78,0,0,1,1.5,0,2.46,2.46,0,0,1-.05,1.55l-.13.54a12.69,12.69,0,0,1-8,8l-9.69,2.42a4.71,4.71,0,0,0,2.28,9.13l9.69-2.42c6.66-1.66,13.17-8.18,14.85-14.86l.14-.54c1-4,.16-7.75-2.28-10.29s-6.13-3.56-10.16-2.75l-28.6,5.72c-6.79,1.36-13.29,6.53-15.12,12l-2.14,6.39-17.65,24.71a8.49,8.49,0,0,1-8.87,2.75l-41.47-15.08a77.33,77.33,0,0,0-16.07-10.42,54.15,54.15,0,0,0-19.93-4.51H173.76a65.73,65.73,0,0,0-19.88,3.67c-2,.76-19.4,7.63-26.06,17.17-12.72,18.25-10.9,72.11-10.64,78.19a14.65,14.65,0,0,0,14.5,13.91h73a4.71,4.71,0,0,0,0-9.41h-73a5.22,5.22,0,0,1-5.1-4.89c-.64-15.65-.28-59.16,9-72.41,4.25-6.09,17.11-12,21.7-13.76m148.17,20.26L320.67,307l11.72,8.78-21.77,39.93c-1.59,2.91-6.07,5.32-9.33,5l-38.89-3.54c-1-11.92-2.78-24.32-6.09-33.33l29.35,10.68a17.84,17.84,0,0,0,19.75-6.13" transform="translate(0 0)"></path><path class="cls-6" d="M187.88,286.25h9.41a32.65,32.65,0,0,0,16.8-4.65,33,33,0,0,0,16.14-28.29V234.49a33,33,0,0,0-32.94-33h-9.41a33,33,0,0,0-32.94,33v18.82a33,33,0,0,0,16.12,28.27,32.63,32.63,0,0,0,16.82,4.67m0-75.29h9.41a23.51,23.51,0,0,1,23.46,22.9c-3.5-.74-7.94-2.39-9.84-6.18a4.65,4.65,0,0,0-3-2.44,4.73,4.73,0,0,0-3.82.62c-19.84,13.24-34.15,11.52-39.74,10v-1.38A23.56,23.56,0,0,1,187.88,211m-23.53,42.35v-7.83a44,44,0,0,0,8.26.77c8.27,0,19.55-2.14,32.85-10.11,4.48,4.79,11,6.62,15.36,7.32v9.85a23.54,23.54,0,0,1-11.55,20.2,23,23,0,0,1-12,3.33h-9.41a22.92,22.92,0,0,1-12-3.35,23.53,23.53,0,0,1-11.53-20.18" transform="translate(0 0)"></path><path class="cls-6" d="M402.34,276.84h4.71a4.71,4.71,0,1,0,0-9.41h-4.71a4.71,4.71,0,0,0,0,9.41" transform="translate(0 0)"></path><path class="cls-6" d="M402.34,309.78h4.71a4.71,4.71,0,1,0,0-9.41h-4.71a4.71,4.71,0,0,0,0,9.41" transform="translate(0 0)"></path><path class="cls-6" d="M402.34,342.72h4.71a4.71,4.71,0,1,0,0-9.41h-4.71a4.71,4.71,0,0,0,0,9.41" transform="translate(0 0)"></path><path class="cls-6" d="M402.34,375.66h4.71a4.71,4.71,0,1,0,0-9.41h-4.71a4.71,4.71,0,0,0,0,9.41" transform="translate(0 0)"></path><path class="cls-6" d="M430.58,276.84h84.7a4.71,4.71,0,1,0,0-9.41h-84.7a4.71,4.71,0,1,0,0,9.41" transform="translate(0 0)"></path><path class="cls-6" d="M430.58,309.78h84.7a4.71,4.71,0,1,0,0-9.41h-84.7a4.71,4.71,0,1,0,0,9.41" transform="translate(0 0)"></path><path class="cls-6" d="M430.58,342.72h84.7a4.71,4.71,0,1,0,0-9.41h-84.7a4.71,4.71,0,1,0,0,9.41" transform="translate(0 0)"></path><path class="cls-6" d="M430.58,375.66h84.7a4.71,4.71,0,1,0,0-9.41h-84.7a4.71,4.71,0,1,0,0,9.41" transform="translate(0 0)"></path><path class="cls-6" d="M430.58,93.31h4.7a4.71,4.71,0,1,0,0-9.41h-4.7a4.71,4.71,0,1,0,0,9.41" transform="translate(0 0)"></path><path class="cls-6" d="M35.28,248.6A4.7,4.7,0,0,0,40,243.9v-4.71a4.71,4.71,0,0,0-9.41,0v4.71a4.7,4.7,0,0,0,4.7,4.7" transform="translate(0 0)"></path><path class="cls-6" d="M562.34,342.72a4.71,4.71,0,0,0,4.71-4.71v-4.7a4.71,4.71,0,1,0-9.41,0V338a4.7,4.7,0,0,0,4.7,4.71" transform="translate(0 0)"></path><path class="cls-6" d="M152.93,451a4.71,4.71,0,0,0,0,9.41h4.71a4.71,4.71,0,0,0,0-9.41Z" transform="translate(0 0)"></path></g></svg>